<?xml version="1.0" standalone="no"?>
<!DOCTYPE svg PUBLIC "-//W3C//DTD SVG 20010904//EN"
 "http://www.w3.org/TR/2001/REC-SVG-20010904/DTD/svg10.dtd">
<svg version="1.0" xmlns="http://www.w3.org/2000/svg"
 width="512.000000pt" height="512.000000pt" viewBox="0 0 512.000000 512.000000"
 preserveAspectRatio="xMidYMid meet">
<metadata>
Created by potrace 1.11, written by Peter Selinger 2001-2013
</metadata>
<g transform="translate(0.000000,512.000000) scale(0.100000,-0.100000)"
fill="#000000" stroke="none">
<path d="M4402 4818 c-31 -29 -59 -55 -62 -58 -11 -12 -88 -67 -130 -94 -45
-30 -250 -146 -256 -146 -17 0 -398 -243 -455 -290 l-46 -39 -89 61 c-137 93
-275 151 -504 209 -180 45 -430 9 -654 -96 -41 -19 -88 -35 -105 -35 -134 0
-369 -131 -539 -299 -129 -129 -270 -333 -347 -504 l-38 -85 -71 47 c-102 69
-157 89 -396 146 -49 12 -106 39 -146 70 -68 52 -94 46 -70 -15 5 -12 0 -16
-21 -15 -26 0 -28 -3 -27 -40 1 -35 39 -136 105 -280 10 -22 38 -97 63 -166
24 -70 55 -151 69 -180 13 -30 35 -76 48 -104 62 -134 172 -314 293 -475 70
-94 73 -123 18 -189 -69 -83 -116 -163 -161 -275 -22 -54 -42 -170 -47 -271
-5 -90 4 -169 30 -286 11 -48 64 -166 99 -222 20 -30 37 -70 39 -89 2 -28 7
-33 28 -34 16 0 43 -18 73 -47 l48 -47 -17 -105 c-12 -70 -14 -109 -7 -116 6
-6 30 1 69 21 72 37 193 80 208 74 6 -3 24 -24 41 -47 85 -122 229 -270 346
-357 44 -33 85 -60 90 -60 20 0 20 30 1 55 -32 41 -60 104 -76 173 l-15 63 52
-47 c29 -26 63 -65 76 -87 17 -27 26 -35 32 -26 6 10 11 10 26 -1 10 -8 -3 6
-28 31 -41 39 -99 132 -99 158 0 6 21 -3 46 -19 25 -16 59 -32 75 -35 16 -4
36 -16 44 -28 8 -12 69 -76 135 -143 124 -125 179 -163 290 -199 72 -24 146
-22 245 5 145 39 212 78 335 195 41 39 91 84 110 99 19 16 54 46 77 67 l42 39
3 -91 c2 -51 8 -94 13 -96 10 -3 71 145 112 275 28 87 88 166 161 208 26 15
53 34 60 41 7 7 16 13 20 13 4 0 32 23 62 50 l54 50 12 -28 c6 -15 10 -30 8
-33 -2 -4 3 -12 10 -18 11 -10 18 -6 32 18 32 54 36 40 19 -61 -4 -24 -15 -65
-25 -91 -12 -32 -14 -47 -7 -44 7 2 17 21 22 43 19 75 50 147 65 152 17 7 41
35 81 95 31 45 29 47 53 -73 21 -106 27 -141 31 -175 13 -110 17 -125 35 -125
16 0 45 67 98 225 62 185 87 271 112 400 11 55 22 104 23 109 4 12 54 -93 78
-163 11 -30 19 -69 19 -88 0 -52 17 -39 25 20 4 28 8 59 10 67 26 126 46 289
60 487 1 21 3 39 4 40 3 6 116 -39 141 -57 18 -13 31 -17 35 -10 16 27 -63
198 -158 340 -55 83 -74 107 -145 182 l-34 36 32 40 c45 56 38 76 -25 78 -57
1 -112 26 -169 77 l-38 34 -2 116 c0 63 -5 113 -10 110 -4 -3 -5 3 -2 14 4 11
0 50 -8 87 -11 54 -11 68 -1 74 14 7 41 62 113 227 60 139 88 217 135 385 82
286 109 398 123 505 3 22 7 51 9 65 2 14 6 50 10 80 3 30 7 71 10 90 3 19 10
94 16 165 6 72 18 147 26 167 9 21 16 50 17 65 1 25 -2 28 -34 29 -31 0 -35 4
-41 32 -4 18 -4 32 0 32 9 0 -22 20 -32 20 -5 0 -34 -24 -65 -52z"/>
</g>
</svg>
