<?xml version="1.0" standalone="no"?>
<!DOCTYPE svg PUBLIC "-//W3C//DTD SVG 20010904//EN"
 "http://www.w3.org/TR/2001/REC-SVG-20010904/DTD/svg10.dtd">
<svg version="1.0" xmlns="http://www.w3.org/2000/svg"
 width="1024.000000pt" height="1024.000000pt" viewBox="0 0 1024.000000 1024.000000"
 preserveAspectRatio="xMidYMid meet">
<metadata>
Created by potrace 1.11, written by Peter Selinger 2001-2013
</metadata>
<g transform="translate(0.000000,1024.000000) scale(0.100000,-0.100000)"
fill="#000000" stroke="none">
<path d="M4675 10123 c-628 -58 -1227 -228 -1775 -504 -310 -156 -519 -284
-765 -469 -398 -300 -834 -745 -1101 -1125 -132 -188 -161 -230 -211 -315
-302 -508 -499 -1009 -617 -1566 -79 -374 -101 -600 -100 -1024 0 -414 21
-632 94 -986 174 -843 548 -1607 1106 -2260 129 -151 496 -513 634 -625 325
-266 606 -447 977 -633 152 -76 428 -196 451 -196 5 0 13 34 17 75 7 76 7 76
-32 135 -21 33 -45 61 -53 62 -8 2 -51 -4 -95 -14 -44 -9 -85 -17 -91 -17 -12
-1 -38 75 -50 142 -5 30 -10 37 -23 31 -53 -22 -173 -65 -174 -62 -23 38 -78
160 -83 181 -5 21 -11 27 -23 22 -9 -4 -55 -9 -102 -12 l-87 -6 -30 65 c-16
35 -33 78 -37 96 -8 36 -9 37 -111 18 -38 -7 -76 -10 -82 -8 -18 6 -52 77 -52
109 -1 47 -19 60 -100 69 -83 10 -72 -2 -100 109 -16 64 -20 67 -111 74 l-84
6 -9 75 c-4 41 -10 76 -11 78 -2 2 -16 5 -32 7 -130 17 -123 14 -123 44 0 16
-3 49 -6 74 l-7 45 -51 7 c-111 13 -103 6 -111 99 -8 95 -12 101 -109 120
l-61 13 -10 70 c-10 72 -26 103 -53 103 -26 0 -87 21 -111 39 -21 16 -21 20
-11 91 6 41 13 85 15 96 4 18 -1 22 -30 27 -19 3 -62 18 -96 33 l-62 28 6 104
c5 91 4 104 -11 108 -35 12 -182 86 -182 92 0 4 14 43 30 87 17 44 32 84 33
89 1 5 -25 15 -58 22 -80 17 -115 31 -115 46 0 7 7 45 15 83 23 110 24 106
-65 165 -44 29 -80 57 -80 62 0 13 29 67 61 115 l29 41 -67 31 c-36 17 -77 34
-90 37 -12 4 -23 12 -23 19 0 19 60 188 71 199 5 6 -3 18 -20 30 -15 12 -51
42 -80 68 l-52 47 31 79 c17 44 37 85 45 92 12 10 0 22 -65 71 -44 32 -80 63
-80 67 0 22 25 80 46 109 13 17 24 38 24 46 0 7 -20 40 -45 71 -25 32 -45 60
-45 62 0 2 15 27 33 56 51 80 51 90 4 145 -22 27 -47 56 -55 65 -12 14 -8 23
32 75 25 32 46 62 46 67 0 4 -18 30 -40 56 -22 26 -40 53 -40 60 0 7 19 34 41
62 47 56 47 62 -19 139 -30 35 -33 42 -20 57 8 9 33 38 55 65 47 55 47 65 -4
145 -18 29 -33 55 -33 58 0 3 20 30 45 61 25 30 45 61 45 70 0 8 -11 29 -24
46 -21 29 -46 87 -46 109 0 4 35 34 78 66 l78 57 -22 33 c-12 18 -32 60 -43
93 l-20 61 51 47 c28 25 64 55 79 67 20 14 25 24 18 31 -11 11 -69 178 -69
199 0 6 11 14 23 18 13 3 54 20 90 37 l67 31 -29 41 c-33 49 -61 102 -61 116
0 6 34 32 75 58 41 27 78 56 81 65 3 10 -2 54 -11 99 -9 44 -14 86 -12 93 5
14 108 46 145 46 12 0 22 4 22 8 0 4 -13 46 -30 92 -16 47 -30 88 -30 92 0 5
44 29 98 55 53 25 98 47 99 48 2 1 -1 46 -5 100 l-8 98 72 34 c40 18 84 33 99
33 21 0 25 4 21 23 -16 73 -27 168 -21 178 11 17 86 49 116 49 36 0 59 29 60
76 3 88 8 96 74 111 100 22 101 23 108 114 4 44 9 84 12 88 2 5 38 12 79 16
l74 6 7 74 c7 82 0 76 107 90 52 7 47 -2 66 115 l8 45 79 8 c43 4 84 12 91 18
7 6 20 44 29 84 l17 73 66 7 c88 9 90 11 102 59 30 115 45 129 131 117 49 -6
69 -5 85 5 11 8 24 11 27 7 4 -3 7 0 7 8 0 8 15 45 33 83 l34 69 84 -2 c47 -1
92 1 101 4 10 4 40 49 68 101 31 57 55 92 62 88 51 -32 187 -58 177 -34 -3 8
30 113 40 129 8 13 22 12 102 -2 66 -12 96 -14 105 -6 7 6 34 42 60 80 26 38
55 69 63 69 9 0 36 -11 60 -25 23 -14 53 -25 66 -25 13 0 26 -6 29 -12 3 -9 5
-8 4 2 -1 8 10 34 24 57 15 23 30 53 34 67 9 35 15 38 60 22 113 -39 134 -44
134 -35 0 6 6 9 13 6 20 -7 59 18 111 71 47 49 49 50 80 38 17 -7 46 -12 64
-12 20 1 32 -3 32 -11 0 -7 5 -13 11 -13 5 0 7 5 4 10 -3 6 2 10 12 10 22 0
103 42 100 52 -7 24 96 52 116 31 12 -11 77 -14 96 -3 14 7 21 6 24 -3 4 -8 8
-9 14 -2 17 22 94 44 118 35 12 -5 25 -7 28 -4 2 2 16 0 30 -5 26 -10 101 4
147 29 27 15 100 22 100 10 0 -16 142 0 180 20 13 7 22 5 31 -6 10 -12 26 -14
78 -10 87 8 110 13 128 28 12 10 18 9 29 -7 8 -10 14 -13 14 -7 0 7 9 12 21
12 13 0 18 -4 13 -12 -5 -10 -4 -10 6 -1 11 10 17 9 29 -6 17 -18 56 -37 47
-22 -3 5 3 11 14 14 11 3 18 1 15 -3 -3 -5 3 -8 14 -7 11 0 18 4 16 8 -3 3 7
11 22 18 22 10 25 9 20 -4 -4 -8 -2 -15 4 -15 5 0 12 7 15 15 4 8 10 12 15 9
5 -3 7 -8 5 -12 -2 -4 12 -7 32 -6 21 0 43 -4 51 -10 12 -9 13 -8 7 4 -4 8 0
6 8 -4 16 -20 16 -20 17 0 0 18 1 18 9 -1 7 -19 9 -18 19 8 12 31 22 36 14 7
-7 -28 13 -25 33 5 9 14 20 22 25 19 5 -3 9 0 9 5 0 6 -10 11 -23 11 -13 0
-33 9 -45 20 -12 12 -22 17 -22 12 0 -16 -40 -21 -48 -7 -4 8 -27 15 -52 16
-53 3 -72 8 -65 19 3 4 -7 11 -23 16 -42 12 -102 13 -102 1 0 -5 -10 -2 -22 9
-12 10 -18 13 -14 7 5 -9 -1 -13 -19 -13 -14 0 -24 4 -20 9 5 9 -659 13 -750
4z"/>
<path d="M5747 10080 c3 -11 7 -20 8 -20 1 0 5 9 8 20 3 12 0 20 -8 20 -8 0
-11 -8 -8 -20z"/>
<path d="M5688 10083 c7 -3 16 -2 19 1 4 3 -2 6 -13 5 -11 0 -14 -3 -6 -6z"/>
<path d="M5845 10050 c-3 -5 1 -10 10 -10 9 0 13 5 10 10 -3 6 -8 10 -10 10
-2 0 -7 -4 -10 -10z"/>
<path d="M5895 10020 c-3 -5 -2 -10 4 -10 5 0 13 5 16 10 3 6 2 10 -4 10 -5 0
-13 -4 -16 -10z"/>
<path d="M6010 9999 c0 -6 7 -8 16 -5 12 5 15 2 10 -10 -5 -14 -4 -15 9 -4 13
11 14 10 9 -4 -5 -12 0 -19 15 -23 11 -3 18 -9 15 -14 -3 -5 0 -9 6 -9 7 0 9
-7 6 -16 -3 -8 -2 -12 4 -9 6 3 10 13 10 20 0 9 6 12 17 8 13 -5 15 -2 10 11
-4 10 -3 15 3 11 6 -3 10 0 10 8 0 8 -7 17 -15 21 -10 4 -15 -1 -15 -14 0 -11
-4 -20 -10 -20 -5 0 -7 7 -4 14 4 10 -6 20 -31 30 -44 19 -65 20 -65 5z"/>
<path d="M6055 9810 c11 -5 27 -9 35 -9 13 -1 13 0 0 9 -8 5 -24 9 -35 9 l-20
0 20 -9z"/>
<path d="M5185 9780 c-40 -32 -64 -37 -82 -19 -15 15 -119 17 -116 2 2 -7 -11
-10 -30 -9 -18 1 -44 -4 -58 -11 -15 -7 -29 -9 -33 -6 -6 6 -41 12 -101 16
-16 2 -33 -1 -36 -5 -3 -5 -16 -10 -29 -13 -12 -2 -31 -12 -41 -21 -17 -15
-23 -16 -72 -2 -34 10 -60 12 -70 7 -10 -6 -18 -5 -22 1 -7 12 -85 -25 -85
-41 0 -6 -4 -8 -9 -5 -5 3 -14 -1 -21 -9 -8 -10 -18 -11 -35 -5 -13 5 -26 6
-29 3 -3 -4 -36 -7 -73 -7 -46 -1 -67 -5 -66 -13 3 -12 -66 -31 -141 -37 -34
-3 -45 -1 -35 5 10 7 3 9 -24 7 -28 -3 -36 -1 -33 9 4 10 1 11 -12 5 -9 -5
-23 -7 -29 -5 -7 3 -13 -2 -13 -11 0 -9 -11 -18 -24 -22 -14 -3 -36 -24 -51
-45 -24 -37 -28 -39 -63 -33 -20 4 -57 13 -81 21 -34 11 -45 12 -51 3 -6 -9
-9 -9 -13 1 -4 10 -6 10 -6 2 -1 -7 -8 -13 -16 -13 -8 0 -15 -4 -15 -10 0 -10
-13 -28 -62 -84 l-27 -31 -33 17 c-64 33 -105 46 -119 38 -8 -5 -26 -38 -39
-74 -14 -36 -32 -68 -41 -71 -9 -3 -36 -1 -60 4 -24 5 -56 12 -71 15 -15 2
-32 7 -38 11 -5 3 -11 1 -11 -4 -1 -6 -2 -15 -3 -20 0 -6 -7 -16 -13 -22 -7
-7 -13 -17 -13 -22 0 -6 -36 -65 -65 -105 -1 -1 -21 2 -44 7 -24 5 -40 7 -38
4 3 -2 -2 -12 -11 -22 -18 -17 -45 -6 -35 14 3 6 -4 -1 -15 -15 -11 -13 -20
-29 -19 -35 1 -5 -6 -9 -15 -7 -11 2 -18 -3 -18 -13 0 -8 -4 -15 -10 -15 -5 0
-7 -7 -4 -15 4 -9 0 -15 -7 -15 -11 0 -11 -3 1 -10 13 -9 12 -13 -5 -28 -23
-20 -33 -48 -13 -35 7 4 20 6 30 5 9 -2 20 2 24 9 4 8 3 9 -4 5 -7 -4 -12 -3
-12 3 0 5 9 9 19 8 11 0 18 -4 15 -8 -2 -4 2 -10 8 -12 8 -4 7 -6 -4 -6 -25
-1 -29 -15 -8 -29 17 -10 18 -9 13 6 -6 14 -4 15 9 4 12 -10 18 -9 28 3 16 20
34 19 26 0 -4 -11 3 -19 20 -25 32 -12 34 -12 34 0 0 6 -9 10 -20 10 -11 0
-20 4 -20 8 0 16 40 6 56 -14 8 -10 13 -13 9 -6 -3 6 0 12 7 12 9 0 9 3 -2 10
-13 8 -13 10 1 10 9 0 19 -3 23 -7 4 -5 13 -8 18 -8 6 0 13 -6 16 -13 3 -11 0
-12 -17 -3 -18 10 -21 9 -21 -9 0 -23 0 -23 33 -11 20 8 27 6 31 -5 3 -9 12
-14 18 -12 15 5 52 -38 44 -50 -2 -4 0 -14 5 -22 8 -12 12 -12 16 -2 7 17 26
15 20 -2 -3 -8 1 -17 9 -20 9 -3 13 -10 10 -14 -3 -5 3 -18 13 -28 9 -11 15
-26 13 -34 -5 -13 -3 -13 11 -2 14 12 16 11 12 -7 -2 -12 0 -19 5 -16 4 3 10
1 12 -3 1 -5 29 -23 60 -41 32 -18 57 -35 57 -39 -3 -19 3 -22 21 -12 16 8 20
8 20 -4 0 -11 39 -28 130 -57 129 -41 145 -52 122 -84 -4 -6 -56 -16 -116 -23
-60 -6 -116 -18 -125 -25 -9 -7 -28 -19 -43 -27 -38 -18 -32 -20 27 -8 49 10
353 16 387 7 38 -9 18 18 -30 41 -28 14 -54 31 -57 38 -9 24 25 71 83 117 56
45 202 125 227 125 9 0 6 -25 -12 -92 -60 -224 -6 -483 124 -597 43 -38 129
-71 186 -71 15 0 68 -19 119 -42 51 -23 108 -41 125 -41 l32 -1 -21 -35 c-12
-20 -28 -46 -36 -58 -24 -38 4 -26 36 15 16 20 44 64 63 97 89 161 183 262
293 314 93 45 238 81 324 81 205 0 511 -113 767 -284 213 -142 524 -401 714
-595 291 -296 451 -517 627 -863 206 -407 295 -673 428 -1274 64 -288 70 -344
70 -619 -1 -268 -11 -353 -55 -455 -27 -63 -26 -64 -81 103 -22 67 -62 165
-89 217 -28 52 -69 138 -91 190 -64 150 -119 255 -257 488 -347 587 -593 865
-1196 1353 -310 250 -618 459 -854 579 -152 77 -464 159 -621 165 -154 5 -160
2 -209 -100 -36 -76 -121 -341 -121 -377 0 -29 40 64 44 104 1 3 4 10 9 14 4
4 7 14 7 23 0 9 6 27 13 41 7 14 21 46 31 72 20 55 65 94 145 128 44 20 57 21
73 11 12 -7 17 -8 13 -2 -9 16 0 14 42 -9 21 -11 45 -20 55 -20 9 0 19 -6 21
-12 4 -10 6 -10 6 0 1 8 12 6 38 -8 21 -11 43 -20 50 -20 7 0 13 -5 13 -11 0
-5 5 -7 10 -4 6 4 17 1 25 -5 8 -7 15 -9 15 -4 0 5 5 1 11 -9 6 -9 14 -15 20
-12 5 4 9 2 9 -2 0 -5 10 -10 22 -10 13 -1 24 -7 26 -13 2 -5 8 -10 14 -10 5
0 23 -9 39 -21 16 -11 29 -17 29 -13 0 4 10 -2 23 -14 12 -11 24 -20 27 -20 3
1 24 -11 47 -25 24 -15 47 -27 52 -27 5 0 11 -7 15 -15 3 -8 22 -23 43 -33 21
-9 44 -23 51 -29 13 -13 28 -17 45 -14 5 1 6 -3 3 -8 -4 -5 42 -42 101 -82
108 -72 194 -135 224 -164 9 -8 18 -15 21 -15 3 0 21 -15 40 -32 19 -18 91
-84 160 -146 124 -112 293 -281 420 -423 92 -103 188 -219 188 -229 0 -4 -6
-13 -14 -19 -8 -7 -12 -21 -9 -32 5 -19 7 -19 31 -3 26 17 26 17 58 -20 l33
-38 -46 -61 c-69 -94 -93 -151 -93 -226 0 -51 3 -62 14 -58 18 7 22 -6 31 -96
17 -172 84 -328 161 -373 79 -46 205 -40 239 12 16 25 49 142 60 212 4 23 10
42 14 42 3 0 15 -16 26 -36 11 -20 34 -48 53 -62 19 -14 31 -31 28 -39 -3 -8
0 -13 7 -11 7 2 13 -1 14 -5 3 -16 38 -35 48 -27 19 15 32 -4 41 -59 8 -51 10
-54 25 -38 13 12 19 45 24 132 4 63 11 113 15 110 7 -5 106 -163 170 -275 8
-14 15 -27 15 -30 2 -16 53 -79 59 -72 5 4 7 -2 5 -13 -3 -21 27 -120 56 -189
18 -42 14 -66 -10 -66 -9 0 -13 -4 -10 -10 3 -5 -3 -10 -14 -10 -12 0 -21 -4
-21 -10 0 -5 -6 -10 -14 -10 -8 0 -17 -7 -20 -16 -4 -10 -12 -14 -22 -10 -9 3
-27 -3 -41 -14 -16 -13 -34 -18 -47 -15 -17 5 -18 4 -6 -4 13 -10 13 -11 0
-12 -8 -1 -23 0 -33 1 -32 3 -69 -28 -61 -52 4 -15 3 -18 -6 -13 -8 5 -11 4
-7 -2 3 -5 2 -25 -2 -44 -16 -60 -22 -131 -11 -124 13 8 38 -17 33 -32 -2 -6
7 -19 21 -28 14 -10 23 -22 19 -31 -3 -9 1 -14 12 -14 9 0 22 -13 28 -29 6
-16 21 -35 34 -42 12 -7 20 -16 17 -21 -3 -4 -1 -8 4 -8 13 0 33 -50 26 -62
-5 -7 -2 -8 6 -3 10 6 12 4 7 -9 -4 -10 -3 -15 3 -11 6 3 10 -3 10 -14 0 -12
5 -20 12 -18 7 1 12 -7 13 -18 0 -11 5 -19 11 -18 7 1 10 -6 7 -20 -4 -17 -2
-19 5 -8 9 12 13 10 23 -12 8 -17 18 -26 26 -23 8 3 16 -1 19 -8 4 -11 13 -12
36 -5 17 5 36 5 42 1 13 -10 27 -9 44 1 6 5 17 5 22 2 6 -4 17 -2 25 5 8 6 22
10 32 9 10 -1 32 2 48 6 17 5 38 8 48 7 9 0 15 3 12 8 -3 5 10 6 30 3 23 -4
35 -2 35 6 0 6 12 11 26 11 14 0 35 5 46 11 14 7 18 8 14 0 -4 -6 9 -4 29 5
20 8 66 21 103 28 94 19 95 19 111 40 17 23 23 66 10 66 -6 0 -8 4 -5 9 3 4
-12 33 -34 63 -22 31 -36 58 -33 62 4 3 2 6 -4 6 -6 0 -16 15 -23 33 -8 17
-19 39 -27 48 -8 10 -11 28 -7 50 3 19 7 54 9 79 3 41 2 43 -12 25 -8 -11 -28
-46 -45 -78 -17 -31 -33 -55 -35 -53 -3 3 1 80 9 173 7 96 13 313 13 508 0
350 -6 421 -51 625 -53 237 -308 889 -484 1235 -75 148 -279 487 -444 740 -59
90 -185 250 -267 340 -75 83 -123 145 -110 145 41 0 481 -434 827 -816 272
-301 345 -415 464 -734 33 -86 70 -180 83 -208 22 -48 25 -50 34 -29 7 15 6
40 -5 82 -20 86 -23 115 -11 112 6 -1 13 6 14 16 3 13 -1 17 -11 13 -9 -3 -12
-1 -9 4 3 6 15 10 25 10 16 0 19 6 17 40 -1 22 -5 40 -9 40 -5 0 -8 9 -8 19 0
11 -3 21 -7 24 -5 2 -2 2 5 1 6 -2 12 1 12 6 0 6 7 10 16 10 10 0 14 -6 10
-15 -3 -8 -2 -14 3 -12 4 1 42 -33 83 -77 65 -68 85 -82 149 -107 41 -16 75
-29 76 -29 1 0 -1 8 -4 18 -6 15 -5 15 10 3 10 -8 20 -11 24 -7 3 3 1 6 -5 6
-7 0 -12 7 -12 16 0 13 3 14 14 5 10 -9 13 -6 13 16 0 16 3 37 7 48 6 16 6 17
-3 5 -6 -8 -11 -10 -11 -4 0 6 3 14 7 17 13 13 14 82 2 132 -16 69 -68 162
-83 148 -3 -3 -6 1 -6 10 0 19 -20 24 -20 5 -1 -8 -6 -6 -14 4 -7 10 -17 14
-21 10 -5 -4 -5 1 -2 11 4 10 3 16 -3 12 -5 -3 -28 14 -51 37 -24 24 -46 42
-51 41 -4 -2 -8 2 -8 7 0 6 -6 10 -14 10 -8 0 -18 9 -21 20 -6 18 -17 24 -37
21 -5 0 -8 4 -8 9 0 6 -7 10 -15 10 -9 0 -12 6 -8 17 4 11 3 14 -5 9 -7 -4
-15 -1 -18 8 -3 9 -11 13 -17 9 -6 -4 -8 0 -4 10 3 9 3 16 -1 14 -4 -1 -18 6
-32 16 -13 9 -21 17 -17 17 5 0 0 13 -9 29 -10 17 -21 28 -26 25 -4 -3 -8 4
-8 15 0 10 -5 21 -12 23 -6 2 -13 13 -15 24 -14 92 -20 109 -33 105 -8 -2 -23
-6 -32 -8 -17 -5 -18 5 -18 120 0 216 -43 454 -102 570 -36 72 -133 209 -195
278 -32 36 -87 102 -121 146 -34 45 -114 129 -179 187 -99 89 -136 115 -242
170 -271 139 -552 233 -941 316 -639 136 -830 152 -1090 89 -47 -12 -112 -23
-145 -25 -65 -5 -180 -43 -370 -121 -177 -73 -203 -89 -281 -167 -59 -59 -81
-91 -127 -185 -31 -63 -62 -139 -68 -170 l-12 -56 -14 50 c-25 90 -7 280 42
436 7 21 -38 18 -61 -5 -8 -9 -28 -16 -43 -16 -26 0 -90 -17 -135 -35 -16 -7
-17 -6 -6 14 6 13 9 29 6 37 -3 8 -2 14 2 14 8 0 7 57 -2 83 -14 40 -15 47 -3
44 7 -1 11 6 9 17 -2 12 1 16 10 11 7 -3 4 1 -6 9 -19 16 -19 16 3 37 19 17
20 23 9 37 -10 12 -10 14 0 8 6 -4 12 -4 13 1 0 4 2 18 5 31 2 13 -1 22 -9 22
-8 0 -7 4 3 10 8 5 24 7 35 4 18 -6 17 -4 -5 22 -14 16 -17 23 -8 16 14 -12
16 -10 10 10 -5 20 -3 21 10 10 13 -10 18 -10 24 -1 5 8 3 9 -6 4 -10 -6 -12
-4 -7 8 3 9 1 17 -6 20 -8 2 -8 5 1 11 7 4 12 2 12 -3 0 -6 5 -11 10 -11 6 0
10 9 10 21 0 11 6 27 14 34 12 12 15 12 20 -2 9 -22 21 -7 21 25 0 21 4 26 20
24 16 -2 17 -1 6 7 -12 8 -12 12 -2 25 8 9 20 16 28 16 8 0 12 4 9 9 -4 5 4 7
15 4 16 -4 20 -2 17 8 -4 13 12 27 58 48 12 5 24 16 27 24 6 15 18 16 48 3 9
-4 20 -6 25 -4 5 2 28 -3 50 -11 35 -11 42 -18 42 -40 0 -14 -9 -38 -19 -52
-14 -20 -16 -33 -10 -57 5 -17 8 -32 7 -34 -1 -2 16 17 38 42 168 190 343 312
588 406 82 32 234 74 322 89 l38 6 -23 25 c-32 34 -76 32 -124 -6z m360 -820
c150 -17 680 -123 698 -139 8 -8 -48 -91 -61 -91 -4 0 -88 24 -187 54 -205 62
-366 98 -540 121 -182 23 -189 25 -177 37 26 26 132 33 267 18z m1735 -557
c30 -25 63 -51 73 -59 9 -8 21 -14 25 -14 4 0 16 -13 27 -29 11 -16 43 -62 71
-102 29 -41 82 -108 119 -149 77 -87 165 -224 165 -257 0 -13 9 -31 20 -40 11
-10 20 -21 20 -26 0 -18 -33 19 -71 79 -55 87 -222 243 -380 357 l-137 97 -17
98 c-10 53 -20 104 -23 112 -7 18 27 -3 108 -67z m828 -1878 c-2 -2 -28 3 -58
12 -55 15 -55 15 -128 128 -39 62 -72 116 -72 121 1 5 59 -51 131 -124 72 -74
129 -135 127 -137z m-1326 -1079 c13 -14 29 -35 35 -48 6 -13 27 -59 48 -103
20 -44 50 -102 67 -130 l30 -49 -11 -98 c-10 -90 -33 -163 -56 -180 -25 -19
-142 3 -129 24 3 5 -3 12 -15 15 -11 3 -18 9 -16 14 3 4 -3 6 -14 4 -22 -4
-38 12 -75 77 -42 72 -67 172 -73 289 -6 105 -5 107 18 119 13 7 43 30 66 51
51 46 88 51 125 15z m526 -1182 c-11 -11 -18 -12 -22 -5 -4 6 0 11 8 11 9 0
16 5 16 12 0 6 3 8 7 4 4 -3 0 -14 -9 -22z"/>
<path d="M6766 4885 c25 -19 40 -19 24 0 -7 8 -20 15 -28 15 -13 0 -12 -3 4
-15z"/>
<path d="M5480 9790 c-21 -7 -21 -8 -5 -9 11 0 27 4 35 9 18 11 5 11 -30 0z"/>
<path d="M2860 9174 c0 -8 5 -12 10 -9 6 3 10 10 10 16 0 5 -4 9 -10 9 -5 0
-10 -7 -10 -16z"/>
<path d="M2805 9160 c-3 -5 -1 -10 4 -10 6 0 11 5 11 10 0 6 -2 10 -4 10 -3 0
-8 -4 -11 -10z"/>
<path d="M2573 8947 c-10 -22 -10 -25 2 -20 11 3 15 -2 15 -17 0 -18 -3 -20
-14 -11 -10 9 -16 9 -21 1 -4 -6 -15 -8 -25 -5 -13 4 -24 -2 -35 -18 -11 -18
-22 -23 -38 -20 -18 4 -19 3 -7 -6 9 -6 10 -11 3 -11 -6 0 -18 6 -25 14 -8 7
-28 12 -46 11 -18 -2 -32 2 -32 7 0 5 -9 7 -20 3 -10 -3 -28 -2 -38 4 -17 9
-20 6 -26 -27 -3 -20 -6 -53 -6 -73 0 -63 -17 -74 -112 -74 l-83 0 -10 -75
-10 -75 -40 -7 c-22 -4 -59 -7 -81 -7 -38 -1 -42 -3 -48 -32 -3 -17 -6 -45 -6
-61 0 -45 -17 -68 -49 -68 -15 0 -49 -3 -75 -6 l-46 -7 0 -61 c0 -78 -16 -110
-55 -114 -17 -1 -48 -4 -70 -7 l-40 -5 3 -84 c5 -100 5 -100 -107 -110 -41 -4
-77 -8 -79 -11 -4 -4 3 -51 24 -158 5 -25 1 -29 -48 -51 -29 -14 -70 -28 -91
-32 -30 -5 -37 -10 -31 -23 3 -9 9 -46 11 -82 l5 -65 -93 -53 c-52 -30 -96
-55 -97 -56 -2 -2 6 -43 18 -91 l21 -88 -23 -18 c-13 -10 -53 -33 -91 -51 -37
-17 -65 -36 -63 -42 18 -46 39 -159 30 -171 -8 -15 -90 -50 -141 -61 -13 -3
-23 -8 -23 -11 0 -3 17 -39 37 -80 27 -56 34 -78 26 -91 -5 -9 -41 -36 -80
-59 l-71 -44 23 -56 c12 -32 26 -75 29 -97 l7 -40 -79 -48 -79 -48 23 -82 c41
-140 42 -128 -16 -180 -29 -26 -58 -47 -65 -47 -9 0 1 -27 26 -76 21 -41 39
-81 39 -89 0 -14 -31 -42 -104 -93 l-47 -33 43 -50 c82 -96 82 -89 10 -162
l-62 -63 45 -58 c44 -57 44 -58 29 -88 -8 -16 -31 -47 -51 -69 l-35 -39 46
-56 c25 -31 46 -60 46 -64 0 -4 -21 -33 -46 -64 l-46 -56 35 -39 c20 -22 43
-54 52 -70 15 -31 15 -31 -31 -88 l-47 -57 62 -58 c33 -32 61 -64 61 -72 0 -8
-25 -43 -55 -78 l-55 -63 24 -20 c12 -11 44 -35 70 -53 25 -17 50 -40 53 -49
4 -11 -9 -47 -34 -95 -27 -51 -37 -78 -28 -78 7 0 36 -21 65 -47 58 -52 57
-40 16 -180 l-23 -82 78 -47 c44 -27 79 -53 79 -59 0 -19 -27 -108 -43 -147
l-16 -36 68 -40 c98 -59 99 -60 67 -135 -15 -34 -35 -70 -43 -79 -14 -16 -14
-18 8 -26 121 -44 152 -57 156 -68 3 -8 -3 -49 -13 -91 -10 -43 -18 -82 -19
-87 0 -4 21 -16 46 -26 37 -15 110 -58 127 -74 1 -2 -7 -42 -19 -90 -12 -48
-20 -88 -18 -89 42 -29 96 -60 138 -81 l52 -27 -6 -67 c-4 -37 -9 -74 -11 -82
-3 -12 14 -21 68 -37 111 -33 110 -31 91 -136 -9 -48 -14 -90 -11 -93 3 -3 39
-8 79 -11 111 -9 112 -9 107 -108 -3 -94 -3 -95 78 -95 64 0 76 -15 82 -102
l4 -76 37 -6 c20 -3 53 -6 74 -6 45 0 57 -22 57 -104 l0 -53 63 -6 c107 -9
114 -14 122 -96 l7 -71 88 0 c103 0 99 4 107 -112 5 -72 7 -77 27 -73 104 21
169 26 177 14 18 -28 49 -121 49 -145 0 -21 3 -25 18 -18 9 4 49 9 87 11 l70
4 48 -86 c26 -47 47 -90 47 -95 0 -13 2 -13 94 10 43 11 84 20 90 20 12 0 36
-37 78 -122 l28 -57 42 15 c24 8 67 16 96 17 l54 2 24 -65 c13 -36 24 -73 24
-82 0 -10 3 -18 7 -18 10 0 113 52 118 60 14 22 110 351 148 505 26 108 67
237 101 324 53 134 67 184 36 126 -10 -19 -31 -30 -84 -46 -39 -11 -161 -47
-271 -79 -220 -65 -592 -160 -625 -160 -24 0 -26 4 -80 185 -24 79 -56 229
-80 371 -23 132 -47 266 -54 299 -8 33 -17 84 -21 113 -7 52 -7 52 -43 52 -21
0 -62 7 -92 15 -30 8 -163 33 -295 55 -295 50 -577 124 -589 155 -6 17 123
536 171 685 14 41 37 122 53 180 15 58 31 112 34 120 7 16 -21 33 -394 238
-241 132 -495 287 -498 305 -4 17 78 185 136 282 31 52 85 129 207 299 16 22
68 99 116 170 l88 129 -27 35 c-15 19 -43 61 -62 93 -19 32 -89 134 -155 228
-140 200 -186 273 -257 411 -50 99 -51 101 -32 119 23 22 377 235 534 321 215
118 340 193 340 204 -1 36 -51 159 -80 196 -19 24 -29 40 -21 35 8 -5 -1 11
-20 36 -19 24 -37 46 -41 47 -5 2 -8 13 -8 25 -1 27 -24 60 -35 49 -4 -4 -5 4
-2 17 3 14 1 31 -5 38 -6 7 -8 22 -5 33 3 11 2 20 -1 20 -4 0 -15 14 -24 30
-10 18 -12 29 -5 27 7 -1 12 14 13 38 3 68 12 133 19 144 3 6 2 11 -3 11 -6 0
-8 9 -5 20 3 10 -5 65 -17 121 -18 84 -19 104 -8 114 33 31 440 136 452 116 2
-3 12 -35 21 -71 10 -36 51 -154 92 -262 l73 -197 -53 -93 c-114 -196 -149
-286 -187 -471 -6 -32 -17 -63 -24 -69 -7 -6 -10 -23 -8 -38 2 -14 -17 -127
-42 -250 -25 -124 -51 -272 -58 -330 -13 -118 -17 -427 -5 -540 l7 -75 -57
-37 c-32 -20 -74 -51 -93 -68 l-35 -30 40 -35 c22 -19 78 -57 125 -85 47 -28
93 -56 102 -63 9 -7 33 -62 54 -123 31 -89 116 -268 248 -519 15 -29 14 -31
-55 -165 -39 -74 -101 -178 -138 -230 -38 -52 -73 -105 -79 -117 -13 -24 -14
-24 113 -43 146 -22 280 -57 620 -165 77 -25 146 -46 154 -47 20 -4 62 77 130
253 33 85 69 175 80 201 22 53 23 53 108 10 65 -33 172 -62 232 -62 47 0 75
-9 174 -55 65 -30 137 -68 162 -85 24 -16 48 -30 53 -30 11 0 104 -60 115 -75
5 -5 5 0 2 13 -5 16 -2 22 9 22 9 0 16 -4 16 -10 0 -5 9 -10 21 -10 11 0 17
-4 14 -10 -3 -5 0 -10 8 -10 14 0 30 -17 86 -90 19 -25 43 -53 53 -63 10 -10
18 -25 18 -35 0 -14 2 -14 9 -3 21 33 -73 176 -197 301 -69 69 -135 122 -229
184 -72 48 -135 95 -138 106 -9 30 -20 24 -40 -21 -33 -73 -107 -87 -238 -46
-80 26 -237 113 -332 186 -80 61 -256 240 -277 282 -66 134 -93 251 -86 384 6
107 22 149 77 204 32 32 48 41 76 41 31 0 35 -3 35 -25 0 -14 6 -25 13 -25 6
0 13 -11 13 -25 2 -19 -1 -23 -10 -16 -9 8 -13 6 -13 -4 0 -8 8 -15 18 -15 16
0 16 -2 3 -30 -10 -20 -20 -27 -32 -24 -13 5 -14 4 -3 -4 11 -8 11 -15 -3 -42
-19 -39 -19 -40 -5 -40 5 0 7 5 4 10 -3 6 -1 10 4 10 6 0 11 -7 11 -15 0 -8
-5 -15 -10 -15 -6 0 -2 -12 7 -27 10 -15 12 -24 6 -20 -7 5 -18 5 -25 1 -8 -5
-6 -9 6 -14 10 -3 18 -10 18 -15 0 -6 4 -21 9 -34 9 -21 7 -23 -13 -18 l-23 6
22 -18 c12 -10 19 -21 16 -25 -4 -3 -2 -6 4 -6 15 0 22 -47 10 -59 -8 -8 -4
-11 13 -11 23 0 23 0 4 -16 -15 -12 -15 -15 -2 -10 10 3 19 -2 23 -12 5 -13 8
-14 14 -3 6 8 8 -4 7 -32 -1 -26 3 -43 8 -39 5 3 7 -2 3 -11 -3 -10 -3 -17 1
-17 12 0 44 -59 37 -69 -3 -5 -1 -12 5 -16 5 -3 10 -1 10 5 0 6 12 2 28 -9 39
-27 56 -30 57 -7 0 24 41 32 49 10 9 -23 -3 -37 -20 -23 -10 8 -14 8 -14 0 0
-6 4 -11 9 -11 5 0 17 -7 25 -16 14 -14 18 -14 31 0 14 13 13 16 -2 25 -10 6
-12 11 -5 11 6 0 12 5 12 11 0 5 -5 7 -12 3 -7 -5 -8 -3 -3 6 6 10 10 10 19
-2 14 -19 62 -36 51 -18 -5 8 -4 11 3 6 6 -4 9 -13 6 -20 -4 -9 3 -13 22 -10
14 1 36 -1 48 -6 17 -7 18 -9 4 -9 -10 -1 -18 -5 -18 -10 0 -5 -9 -11 -19 -14
-15 -3 -18 -1 -15 12 3 9 -2 5 -10 -9 -25 -41 -21 -52 18 -45 25 5 46 0 84
-19 28 -14 56 -26 62 -26 18 0 -14 50 -46 70 -16 11 -23 20 -16 20 7 0 1 11
-14 25 -25 24 -26 25 -6 25 15 0 20 -5 16 -15 -4 -9 0 -15 10 -15 9 0 16 7 16
15 0 8 5 15 11 15 5 0 7 5 4 10 -4 6 -11 8 -16 5 -5 -4 -9 1 -9 9 0 24 15 19
30 -9 7 -14 17 -25 22 -25 5 0 6 -5 2 -12 -4 -6 -3 -8 3 -5 5 3 30 -14 54 -39
191 -196 601 -457 849 -539 96 -32 340 -97 362 -97 11 1 15 -5 12 -16 -5 -13
-2 -13 11 3 16 19 27 14 26 -12 0 -5 10 -14 22 -21 20 -12 19 -12 -15 -7 -33
5 -38 3 -38 -13 0 -20 27 -26 48 -9 8 6 12 6 12 -2 0 -6 9 -11 20 -11 11 0 20
7 20 16 0 8 5 12 11 8 6 -3 15 0 20 7 6 10 9 10 9 2 0 -7 -9 -17 -20 -23 -11
-6 -18 -15 -15 -21 4 -5 -5 -9 -19 -9 -14 0 -26 5 -26 11 0 8 -4 8 -15 -1 -8
-6 -19 -9 -24 -5 -7 3 -8 0 -5 -10 4 -10 2 -15 -6 -13 -7 2 -15 -4 -17 -12 -3
-10 -2 -11 4 -3 12 17 38 -1 28 -18 -5 -8 -5 -11 0 -7 4 4 14 3 22 -3 10 -9
12 -6 9 17 -2 16 -1 21 1 12 2 -10 9 -18 14 -18 17 0 9 -29 -11 -40 -22 -12
-27 -36 -8 -42 7 -3 -2 -13 -19 -23 -18 -10 -30 -22 -27 -26 16 -26 -185 78
-302 156 -54 36 -90 57 -79 46 29 -28 294 -211 332 -229 18 -8 29 -20 26 -25
-3 -6 -1 -7 5 -4 12 8 42 -2 42 -13 0 -5 -9 -7 -20 -5 -11 2 -22 0 -25 -6 -6
-8 25 -14 49 -10 5 1 4 -5 -4 -13 -10 -13 -10 -16 4 -16 10 0 14 -5 11 -10 -3
-5 -14 -10 -24 -10 -10 0 -23 -6 -30 -13 -8 -11 -5 -13 18 -9 16 2 32 -1 35
-7 4 -6 2 -11 -5 -11 -9 0 -9 -3 0 -14 10 -12 9 -14 -7 -10 -10 3 -24 -2 -31
-10 -8 -9 -9 -16 -3 -16 6 0 12 6 15 13 4 9 7 9 18 0 9 -9 9 -13 1 -13 -6 0
-9 -7 -5 -17 4 -11 3 -14 -5 -9 -7 4 -12 3 -12 -2 0 -5 -21 -13 -47 -16 -40
-6 -286 -64 -345 -82 -16 -5 -18 3 -18 74 0 43 -3 82 -7 85 -10 11 -31 -45
-38 -107 -4 -30 -12 -62 -19 -70 -11 -14 -102 -53 -327 -139 -135 -53 -219
-93 -219 -107 0 -6 16 -59 35 -118 19 -59 41 -138 50 -177 9 -38 30 -113 47
-165 26 -80 30 -109 29 -183 -2 -68 3 -104 20 -155 12 -37 26 -72 31 -79 5 -6
6 -24 2 -40 -3 -15 15 13 40 62 39 75 116 183 116 162 0 -3 -16 -33 -36 -67
-19 -33 -50 -109 -69 -168 -18 -59 -70 -222 -114 -362 -44 -140 -87 -280 -95
-310 -28 -105 -76 -322 -76 -347 0 -14 13 -48 30 -75 17 -26 30 -53 30 -58 0
-15 31 -12 75 9 23 10 62 21 87 25 l47 7 38 -61 c21 -34 43 -69 49 -77 9 -13
23 -12 113 12 l103 27 44 -43 44 -43 0 286 c0 492 36 844 134 1305 63 298 115
439 199 545 22 29 63 85 90 126 45 68 50 72 62 55 9 -10 14 -13 15 -5 0 6 5
12 11 12 7 0 5 -10 -5 -25 -9 -13 -16 -28 -16 -32 0 -4 5 -1 10 7 8 13 10 12
10 -3 0 -10 4 -15 10 -12 5 3 2 -7 -7 -24 -10 -16 -22 -27 -28 -24 -5 4 -7 3
-3 -2 4 -4 -4 -29 -17 -55 -34 -67 -59 -151 -104 -345 -74 -325 -81 -404 -81
-958 0 -412 8 -648 30 -832 6 -44 10 -85 10 -92 0 -21 12 -15 64 27 26 22 56
40 66 40 10 0 43 -27 73 -60 l56 -60 56 47 57 46 32 -18 c17 -10 48 -34 68
-53 l37 -35 57 46 c31 26 61 47 66 47 5 0 34 -21 64 -47 l55 -46 37 35 c20 19
51 43 69 53 l31 18 59 -47 58 -46 55 60 c30 33 63 60 72 60 9 0 46 -25 81 -55
74 -62 62 -65 137 42 24 35 44 63 46 63 11 0 120 -53 144 -70 26 -18 30 -19
30 -5 0 9 23 41 51 70 39 41 55 52 68 46 29 -15 181 -52 190 -47 5 3 28 38 51
77 l42 71 47 -7 c25 -4 66 -15 90 -26 24 -10 49 -19 55 -19 6 0 23 24 38 53
16 28 39 64 53 79 l25 27 57 -26 c32 -15 68 -33 80 -41 19 -12 24 -12 28 -1 3
8 16 46 30 84 l24 70 53 -1 c29 -1 72 -8 96 -17 41 -14 43 -14 56 7 8 11 17
32 21 46 11 35 64 110 78 110 7 0 48 -9 91 -20 44 -11 80 -19 80 -18 1 2 12
21 24 43 13 22 35 64 50 93 l26 52 62 0 c35 0 74 -4 87 -9 23 -9 25 -7 31 28
3 21 16 61 28 90 l22 53 45 -7 c25 -3 69 -10 97 -14 l51 -7 7 78 c9 113 4 108
106 108 l89 0 6 58 c3 31 7 63 8 71 3 20 63 39 125 40 l52 1 0 44 c0 59 10
107 24 111 6 2 41 6 77 10 l66 6 5 74 c6 87 17 105 68 105 21 0 50 3 66 6 l29
5 0 87 c0 100 -4 97 119 108 l68 6 -6 46 c-4 26 -11 69 -15 96 l-8 48 52 23
c29 13 69 27 89 30 27 6 35 11 32 24 -3 9 -8 46 -11 82 l-7 65 96 54 c53 30
96 58 96 62 0 4 -9 44 -20 90 l-20 83 23 18 c12 10 52 32 90 50 49 23 66 36
61 47 -3 8 -13 47 -21 87 -12 52 -13 76 -5 85 6 7 42 24 81 38 39 13 71 30 71
36 0 7 -14 43 -30 80 -17 37 -28 74 -26 81 5 12 113 87 139 96 9 3 6 22 -10
68 -12 35 -25 80 -29 101 -6 36 -6 36 65 78 39 23 74 46 77 51 3 5 -7 55 -22
111 l-27 101 49 47 c27 26 55 49 62 51 9 3 2 24 -23 74 -19 39 -35 79 -35 91
0 14 19 34 60 63 33 23 60 49 60 57 0 9 5 12 12 8 16 -10 2 11 -49 74 -24 29
-43 60 -43 70 0 9 25 42 56 73 l57 58 -42 52 c-22 28 -41 56 -41 61 0 11 28
57 53 84 14 17 17 31 13 59 -6 37 -48 99 -60 88 -3 -4 -4 14 -2 38 2 24 4 54
5 67 1 24 35 32 44 10 8 -19 8 33 1 60 -4 13 -12 21 -20 18 -7 -3 -18 2 -25
10 -10 12 -9 13 7 8 14 -4 13 -1 -6 15 -14 11 -20 21 -13 21 6 0 9 9 6 20 -3
11 2 31 11 45 9 13 16 31 16 40 0 8 5 15 11 15 8 0 8 4 0 14 -6 8 -11 18 -9
22 3 13 -31 81 -48 95 -18 15 -18 49 1 72 7 11 11 25 8 33 -3 8 -1 14 3 14 5
0 9 11 9 25 0 14 -4 25 -9 25 -4 0 -6 7 -2 15 3 9 0 15 -10 15 -8 0 -12 4 -9
10 9 14 -36 71 -64 81 -13 6 -21 15 -18 23 3 7 0 19 -6 26 -9 10 -9 14 0 17
10 4 9 11 -2 33 -9 18 -11 31 -5 35 14 9 6 46 -13 60 -9 7 -17 21 -17 33 0 11
-5 22 -11 24 -7 2 -11 28 -10 65 0 35 -4 65 -10 69 -8 5 -8 9 1 14 8 5 5 20
-11 53 -12 25 -26 44 -30 41 -18 -11 -73 105 -62 132 3 8 -1 14 -8 14 -12 0
-12 2 0 9 9 6 10 11 2 15 -6 4 -11 18 -11 31 0 12 -7 25 -15 29 -9 3 -12 12
-9 21 7 18 -29 58 -42 47 -4 -4 -4 2 0 13 4 11 4 16 0 12 -8 -8 -54 39 -54 56
0 7 4 6 10 -3 6 -9 10 -10 10 -3 0 6 -6 18 -14 25 -9 10 -11 20 -4 31 8 16 0
22 -24 18 -13 -2 -9 16 6 29 21 17 10 36 -22 36 -15 0 -38 2 -51 5 -19 3 -25
-1 -28 -20 -5 -34 -10 -37 -36 -23 -13 8 -10 2 8 -13 17 -14 22 -23 13 -19
-10 3 -18 1 -18 -5 0 -6 5 -11 12 -11 6 0 8 -3 4 -7 -4 -4 -17 4 -29 18 -12
13 -19 21 -16 16 4 -5 4 -17 2 -28 -5 -19 -6 -19 -20 -2 -8 10 -12 13 -9 7 3
-7 -1 -15 -10 -18 -8 -3 -12 -10 -9 -16 7 -12 -7 -13 -21 -2 -5 4 -1 -1 10
-11 18 -17 18 -19 3 -35 -15 -14 -17 -14 -17 -1 0 25 -26 18 -28 -8 -1 -14 4
-23 13 -23 7 0 17 -5 21 -12 5 -8 2 -9 -9 -5 -11 4 -17 1 -17 -7 0 -8 -10 -17
-22 -21 -20 -6 -20 -8 -5 -12 9 -2 17 -9 17 -14 0 -6 -4 -8 -9 -5 -5 3 -15 -2
-22 -11 -12 -14 -12 -16 1 -11 9 3 22 -4 33 -18 15 -20 16 -25 4 -30 -7 -2
-14 -11 -14 -19 0 -10 4 -11 11 -6 7 6 18 4 29 -4 10 -7 14 -16 8 -19 -5 -3
-11 -1 -13 6 -3 9 -9 8 -22 -5 -10 -9 -13 -17 -7 -17 6 0 17 -12 24 -26 12
-22 15 -24 20 -10 4 10 3 15 -3 11 -6 -3 -10 -2 -10 4 0 20 19 21 25 2 3 -11
23 -37 43 -57 41 -41 83 -119 75 -140 -3 -9 2 -14 16 -14 12 0 21 -4 21 -9 0
-6 13 -18 30 -27 20 -13 26 -20 17 -26 -8 -5 -1 -11 20 -18 23 -8 30 -16 26
-27 -4 -11 -2 -14 5 -9 7 4 23 -12 42 -43 17 -28 30 -52 28 -54 -2 -2 5 -11
14 -20 13 -14 15 -24 7 -54 -6 -21 -15 -48 -21 -60 -6 -11 -8 -25 -4 -31 6
-11 -38 -55 -47 -46 -3 3 -12 -7 -20 -23 -9 -15 -24 -37 -34 -48 -10 -11 -28
-40 -40 -64 -22 -43 -57 -91 -100 -137 -13 -13 -23 -28 -23 -35 0 -6 -13 -23
-28 -37 -15 -15 -39 -43 -52 -62 -26 -37 -29 -42 -60 -79 -11 -13 -20 -30 -20
-38 0 -7 -4 -13 -10 -13 -5 0 -10 -6 -10 -12 0 -7 -11 -26 -25 -42 -13 -16
-22 -33 -19 -37 3 -5 0 -9 -7 -9 -6 0 -9 -8 -6 -20 3 -11 2 -18 -3 -15 -4 3
-10 -4 -13 -15 -3 -13 -1 -18 6 -13 6 4 8 -2 5 -15 -4 -12 -3 -22 2 -22 9 0
23 -39 21 -57 -1 -7 3 -13 8 -13 6 0 19 -18 29 -41 10 -22 22 -39 26 -37 8 3
42 -49 68 -102 14 -29 59 -92 71 -101 5 -3 8 -9 8 -13 -3 -19 0 -26 12 -26 6
0 19 -15 26 -32 8 -18 34 -62 57 -98 68 -106 165 -300 162 -323 -2 -13 -24
-33 -63 -56 -33 -19 -123 -73 -200 -121 -77 -48 -184 -111 -238 -141 -53 -30
-119 -66 -145 -81 -26 -15 -66 -38 -89 -50 -24 -12 -43 -28 -43 -36 0 -7 -4
-11 -8 -8 -19 11 -65 -52 -67 -92 -2 -34 24 -159 42 -202 3 -8 7 -19 8 -25 6
-42 19 -85 25 -85 4 0 7 -6 6 -12 0 -7 7 -42 16 -78 56 -209 129 -543 120
-552 -30 -30 -309 -105 -557 -148 -232 -40 -291 -54 -364 -83 -3 -1 -15 -11
-27 -22 -17 -15 -20 -23 -12 -33 9 -10 8 -12 -2 -10 -13 3 -43 -88 -34 -104 3
-4 1 -8 -3 -8 -5 0 -10 -15 -11 -32 -1 -33 -5 -50 -14 -78 -6 -16 -39 -148
-42 -165 -1 -5 -5 -16 -9 -22 -5 -7 -5 -17 -2 -23 3 -5 2 -10 -3 -10 -5 0 -16
-37 -26 -82 -22 -105 -94 -354 -112 -391 -9 -15 -23 -27 -34 -27 -38 0 -546
130 -680 174 -233 77 -227 74 -250 131 -11 27 -29 64 -40 80 -19 28 -20 28
-18 7 3 -20 -8 -29 -62 -58 -110 -58 -181 -75 -326 -81 -124 -5 -137 -4 -260
27 -132 33 -191 59 -232 103 -21 22 -28 24 -91 19 -61 -4 -70 -2 -96 20 -27
24 -28 27 -16 57 16 37 72 88 107 97 19 5 23 11 18 23 -18 38 -3 98 54 215 47
98 68 130 110 167 75 68 236 147 350 172 23 5 62 -25 62 -47 0 -6 -32 -19 -70
-28 -192 -46 -380 -188 -424 -321 -20 -58 -21 -111 -3 -104 6 2 51 17 99 33
70 22 88 32 93 51 15 61 111 127 285 196 109 43 116 43 134 9 l15 -30 -77 -27
c-42 -15 -118 -47 -169 -71 -88 -42 -92 -46 -117 -98 -25 -53 -25 -55 -8 -85
26 -47 90 -74 176 -74 53 0 103 9 196 37 118 35 125 36 138 19 7 -10 11 -26 9
-35 -3 -9 -2 -18 2 -20 4 -2 19 -23 33 -48 15 -25 35 -57 46 -70 l20 -25 -5
71 c-5 75 23 216 67 341 11 32 32 103 45 158 13 55 40 145 59 200 20 55 36
101 36 103 0 8 -194 93 -317 140 -190 73 -191 74 -35 66 131 -6 134 -6 123 13
-7 15 -33 25 -93 38 -72 15 -105 17 -248 9 -91 -5 -193 -8 -228 -6 -91 3 -422
67 -495 96 -34 14 -89 32 -122 40 -33 8 -85 24 -115 34 -30 10 -62 17 -70 14
-8 -3 -12 -1 -8 3 9 9 -16 35 -34 35 -7 0 -21 9 -31 20 -10 12 -21 18 -26 15
-5 -2 -12 2 -15 11 -3 8 -10 12 -16 9 -5 -3 -15 6 -20 20 -7 17 -16 25 -24 22
-8 -3 -20 2 -28 10 -11 15 -11 16 6 10 16 -6 17 -5 6 8 -7 8 -16 12 -21 9 -5
-3 -9 0 -9 5 0 6 -7 11 -15 11 -8 0 -14 3 -13 7 2 5 -5 18 -14 31 -10 15 -17
19 -20 11 -3 -9 -9 -9 -22 -2 -13 7 -15 13 -7 17 6 4 11 2 11 -5 0 -7 3 -10 6
-7 9 10 -16 50 -29 45 -6 -2 -18 4 -28 14 -9 9 -23 19 -30 21 -8 3 -10 9 -5
14 5 5 11 4 13 -3 6 -18 23 -16 23 2 0 8 -7 15 -15 15 -9 0 -12 6 -8 17 4 11
3 14 -5 9 -8 -4 -10 -2 -6 7 3 8 -2 17 -11 21 -9 3 -14 10 -10 15 3 5 1 12 -4
15 -5 3 -7 16 -4 29 5 19 4 20 -8 7 -8 -8 -13 -13 -11 -11 1 2 -5 13 -15 23
-9 11 -11 18 -5 18 7 0 12 5 12 11 0 5 -4 7 -10 4 -5 -3 -10 3 -10 15 0 13 -4
19 -11 14 -8 -5 -8 -1 0 14 8 16 8 23 -1 29 -12 7 -17 22 -20 61 -1 7 -8 10
-17 7 -13 -5 -13 -4 -4 6 10 10 9 15 -5 25 -14 10 -15 15 -4 26 11 11 12 10 6
-7 -5 -16 -4 -17 5 -9 10 9 10 17 2 32 -6 11 -11 30 -11 41 0 13 -6 21 -17 21
-14 0 -12 5 8 27 13 14 18 23 12 19 -19 -10 -16 10 4 29 13 13 13 19 4 25 -21
12 -3 50 23 50 23 0 24 4 28 92 3 64 0 100 -8 117 -10 18 -10 29 -2 38 6 7 7
13 2 13 -5 0 -2 6 7 13 9 7 20 26 26 42 8 23 16 30 34 28 13 -1 60 -5 104 -8
104 -9 188 6 272 47 58 28 64 33 42 36 l-26 3 28 53 c34 62 64 185 79 317 16
141 1 241 -50 348 -22 46 -39 85 -38 86 2 1 42 12 90 24 57 14 119 22 182 22
69 1 98 5 107 15 6 8 8 14 4 14 -4 0 -1 7 6 16 34 41 -154 150 -298 174 -63
11 -163 -2 -235 -31 -168 -66 -366 -189 -485 -302 l-52 -49 -53 32 c-29 18
-57 39 -61 46 -5 8 -12 12 -18 9 -8 -5 -10 -1 -9 20 0 3 -11 18 -25 33 -14 15
-25 32 -25 39 0 7 -4 13 -10 13 -5 0 -10 9 -10 20 0 11 -4 20 -10 20 -5 0 -7
7 -4 15 4 8 -1 17 -9 21 -9 3 -13 13 -9 26 3 14 1 19 -6 14 -9 -5 -23 18 -28
49 -4 25 -17 55 -23 55 -4 0 -5 16 -3 35 3 22 0 35 -7 35 -7 0 -9 5 -6 10 3 6
1 10 -6 10 -7 0 -9 3 -6 7 4 3 1 14 -7 22 -8 9 -17 37 -18 63 -2 25 -10 54
-18 64 -11 13 -12 18 -3 21 10 4 10 9 0 26 -7 12 -16 25 -21 29 -6 4 -5 12 2
21 7 7 9 16 6 20 -3 3 3 38 14 79 25 92 50 211 57 263 2 22 7 51 10 65 2 14 7
40 10 59 3 19 10 42 16 52 5 11 6 19 1 19 -7 0 -48 -116 -116 -333 -7 -20 -16
-34 -20 -30 -4 4 -4 0 0 -10 3 -10 1 -17 -5 -17 -6 0 -11 7 -11 15 0 8 -5 15
-11 15 -5 0 -7 5 -4 10 4 6 12 8 18 4 7 -3 3 1 -7 10 -10 8 -22 13 -26 11 -5
-3 -10 2 -14 10 -7 20 14 31 26 14 7 -10 8 -8 2 6 -4 11 -7 28 -8 38 0 21 -1
21 -22 0 -17 -17 -17 -16 -10 10 6 24 3 30 -13 34 -12 3 -18 9 -16 14 3 4 18
4 33 -2 27 -10 27 -10 7 9 -11 11 -22 18 -25 16 -4 -1 -11 6 -17 16 -10 15 -9
17 9 12 14 -3 19 -1 14 6 -3 6 -2 14 4 17 8 5 7 11 -1 21 -16 20 -20 67 -6 76
9 6 8 11 -3 18 -13 9 -7 14 12 11 4 0 5 6 2 13 -3 8 -12 12 -20 9 -9 -3 -14 1
-14 12 0 11 5 15 14 12 10 -4 13 -1 9 8 -3 8 -9 12 -14 9 -5 -3 -9 0 -9 6 0 6
7 13 15 16 9 4 15 19 15 36 0 17 -4 27 -10 23 -14 -9 -12 19 3 34 10 11 10 14
0 18 -7 3 -13 9 -13 14 0 4 6 6 14 3 12 -4 13 2 6 33 -7 29 -6 41 5 51 10 8
12 8 5 0 -15 -18 -12 -24 12 -25 13 -1 18 1 12 5 -6 4 -11 14 -11 22 0 8 -4
23 -8 32 -5 13 -2 16 13 13 14 -2 22 3 25 16 4 16 2 19 -16 14 -17 -5 -15 -2
8 14 16 11 32 17 35 13 3 -4 11 -8 19 -10 12 -3 12 0 2 12 -7 8 -10 20 -7 25
4 5 1 13 -5 17 -8 5 -8 9 1 14 9 5 9 13 2 27 -7 12 -7 25 -1 34 6 10 9 10 9 2
0 -7 5 -13 10 -13 20 0 9 31 -15 42 -23 10 -23 12 -7 24 9 7 28 11 42 8 24 -5
24 -5 6 10 -10 8 -23 13 -27 10 -5 -3 -7 1 -4 8 6 15 55 21 55 6 0 -5 11 4 25
19 19 22 24 24 25 11 0 -10 5 -18 11 -18 12 0 4 16 -25 48 -16 18 -18 25 -7
31 11 7 10 11 -5 19 -17 10 -17 11 4 9 19 -1 22 -5 17 -25 -3 -14 -2 -21 4
-18 5 3 11 3 14 -1 2 -5 2 -2 1 5 -2 6 2 12 9 12 9 0 9 2 0 8 -8 5 -9 12 -2
22 8 13 10 13 19 0 8 -13 11 -12 24 5 13 18 13 22 -2 40 -9 11 -13 17 -8 13 5
-4 16 -2 24 5 13 9 14 9 8 0 -4 -8 -1 -13 8 -13 24 0 7 29 -21 36 -13 4 -22 9
-19 12 3 3 1 11 -5 18 -8 9 -5 11 10 7 13 -3 21 -1 21 6 0 7 5 9 10 6 6 -4 17
-2 25 5 10 8 19 8 34 1 12 -7 22 -8 26 -1 8 14 -57 29 -73 17 -9 -7 -17 -6
-24 1 -9 9 -8 12 5 12 9 0 17 5 17 11 0 8 4 8 13 1 7 -6 19 -7 26 -3 9 6 5 10
-13 15 -14 3 -26 11 -26 17 0 6 4 8 9 4 5 -3 13 0 17 6 4 7 3 9 -4 5 -15 -9
-27 13 -13 27 8 8 11 8 11 -1 0 -6 7 -9 15 -6 17 7 21 -16 6 -31 -6 -6 0 -10
17 -11 15 -1 21 1 15 3 -21 8 -15 23 10 24 20 0 20 1 3 8 -11 4 -20 19 -22 35
-4 35 -7 39 -38 39 -20 0 -24 3 -17 16 8 14 3 16 -40 16 -30 0 -53 -6 -58 -13
-5 -9 -17 -11 -35 -6 -21 5 -25 9 -14 16 10 7 10 11 1 15 -19 7 -16 19 6 19
12 0 17 -6 13 -18 -5 -22 23 -25 31 -4 4 11 16 13 41 9 24 -4 36 -2 36 6 0 6
6 11 14 11 26 0 25 15 0 46 -14 16 -22 22 -18 14 4 -8 14 -24 23 -34 15 -18
15 -19 -11 -14 -20 4 -28 1 -28 -8 0 -22 -24 -16 -48 10 -18 21 -19 26 -6 36
7 7 21 9 30 6 10 -4 14 -1 11 6 -2 7 -11 13 -20 13 -9 0 -25 7 -35 15 -9 8
-26 16 -37 18 -15 2 -17 1 -6 -6 9 -7 10 -12 2 -16 -6 -4 -15 1 -19 11 -4 10
-13 19 -20 21 -10 2 -10 -2 -3 -16 7 -13 7 -22 -1 -30 -15 -15 -38 -15 -38 -1
0 5 -4 7 -10 4 -17 -10 -11 12 7 26 9 8 14 9 10 3 -4 -7 0 -15 9 -18 25 -9 27
-7 10 10 -9 8 -14 19 -12 23 5 8 -11 11 -51 11 -25 0 -50 35 -33 45 5 3 10 1
10 -5 0 -14 49 -32 67 -25 8 2 11 10 7 16 -4 8 -9 7 -15 -2 -5 -9 -9 -10 -9
-2 0 6 -9 9 -20 6 -15 -4 -18 -1 -15 16 6 31 -4 51 -26 51 -17 0 -24 17 -21
50 0 3 -8 7 -19 7 -11 1 -17 -2 -14 -8 4 -5 0 -9 -8 -9 -17 0 -49 -34 -40 -43
3 -4 1 -7 -5 -7 -6 0 -13 14 -17 30 -5 22 -13 30 -28 31 -12 0 -16 3 -9 6 14
5 17 33 3 33 -5 0 -12 -7 -15 -16 -5 -13 -9 -13 -30 3 -13 10 -21 24 -19 30 5
13 -3 16 -40 16 -12 0 -14 3 -7 12 5 6 6 16 2 21 -4 4 0 3 10 -4 10 -8 19 -9
22 -3 3 5 -9 15 -27 22 -17 7 -35 14 -39 17 -5 2 -8 -1 -8 -7 0 -6 5 -10 11
-8 6 1 13 -3 16 -10 3 -8 -4 -11 -19 -8 -13 3 -24 9 -26 15 -6 17 -19 11 -25
-12 -4 -13 0 -33 9 -46 14 -22 14 -22 -5 -10 -23 14 -34 45 -17 53 8 3 7 7 -2
11 -10 5 -8 10 7 21 12 8 25 12 29 9 4 -2 14 0 22 6 12 8 12 9 -2 4 -25 -8
-22 9 5 27 21 15 18 16 -58 17 -128 2 -238 13 -365 36 -124 23 -120 18 -64 75
44 45 45 48 17 32 -18 -10 -33 -21 -33 -25 0 -5 -6 -8 -13 -8 -8 0 -24 -11
-37 -26 -16 -16 -32 -23 -45 -20 -26 6 -86 -19 -65 -27 8 -4 83 -21 165 -38
134 -29 166 -32 309 -31 l159 1 -29 -27 c-23 -21 -32 -25 -42 -15 -13 13 -45
7 -37 -7 3 -5 -2 -16 -11 -25 -14 -13 -18 -14 -25 -3 -5 8 -2 15 9 20 14 5 14
7 2 7 -9 1 -21 -4 -27 -10 -16 -16 8 -39 35 -33 11 3 23 1 27 -6 11 -18 -3
-24 -22 -9 -11 9 -14 10 -9 2 10 -17 -4 -16 -23 1 -21 18 -66 32 -57 18 9 -14
-14 -62 -30 -62 -7 0 -10 -9 -7 -22 4 -18 3 -20 -6 -8 -5 8 -18 15 -27 15 -10
0 -19 6 -22 14 -3 8 0 11 6 7 9 -6 27 23 18 31 -8 8 -46 -50 -39 -61 4 -7 1
-6 -9 1 -8 7 -18 9 -22 5 -11 -10 -30 -9 -38 2 -4 6 -10 8 -13 4 -4 -3 2 -15
14 -27 13 -13 21 -16 25 -8 3 9 5 9 5 0 2 -20 -15 -23 -49 -12 -19 7 -35 8
-39 3 -12 -17 -58 -32 -71 -24 -8 5 -17 7 -22 4 -16 -10 -78 -10 -82 0 -2 6
-5 5 -5 -2 -1 -7 -6 -10 -12 -6 -8 4 -9 -1 -4 -17 6 -20 5 -22 -6 -11 -20 19
-52 15 -47 -5 4 -15 -2 -18 -36 -16 -23 0 -45 -4 -49 -10 -6 -8 -7 -6 -4 4 5
16 -9 39 -24 39 -4 0 -10 -7 -13 -16 -5 -12 -2 -15 9 -10 9 3 13 2 10 -4 -8
-13 -42 -13 -50 0 -10 16 -57 -11 -51 -29 3 -9 -2 -6 -10 7 -9 12 -27 22 -40
22 -15 0 -24 6 -24 16 0 8 -4 12 -10 9 -5 -3 -10 1 -10 10 0 9 4 14 9 11 5 -4
4 5 -2 18 -12 24 -37 25 -37 0 0 -8 -4 -14 -10 -14 -5 0 -10 7 -10 15 0 8 -7
15 -15 15 -8 0 -15 -5 -15 -12 0 -6 -3 -8 -7 -4 -5 4 1 15 12 23 20 15 20 15
-3 10 -15 -4 -25 0 -29 9 -3 8 -12 13 -19 10 -8 -3 -14 1 -14 9 0 7 -5 17 -12
21 -8 5 -9 2 -5 -9 4 -11 1 -17 -7 -17 -9 0 -12 7 -9 20 4 14 1 20 -7 18 -7
-2 -14 3 -16 10 -1 7 0 8 3 2 2 -5 9 -8 13 -5 5 3 2 14 -8 23 -15 16 -18 16
-30 2 -12 -13 -13 -13 -8 2 3 11 -2 19 -15 23 -10 4 -19 13 -19 20 0 9 -7 12
-17 9 -15 -5 -15 -3 2 11 20 17 20 17 -6 11 -19 -4 -31 0 -44 14 -10 11 -13
20 -7 20 7 0 12 4 12 9 0 5 -8 8 -17 7 -11 0 -17 6 -17 16 1 10 -7 20 -18 24
-16 5 -18 8 -7 15 21 13 3 22 -20 9 -12 -6 -18 -16 -15 -22 4 -7 3 -8 -5 -4
-6 4 -8 13 -4 19 10 16 11 57 1 57 -4 0 -5 7 -2 15 4 8 2 15 -4 15 -18 0 -34
61 -20 77 10 13 8 14 -12 11 -13 -1 -25 3 -27 10 -3 7 4 12 16 12 12 0 21 5
21 10 0 6 -9 10 -20 10 -11 0 -20 5 -20 10 0 6 7 10 16 10 13 0 11 5 -7 21
-13 11 15 0 62 -25 87 -45 331 -148 382 -160 21 -5 27 -3 27 10 0 10 -5 14
-15 10 -10 -3 -15 1 -15 12 0 11 -20 30 -49 47 -27 17 -47 34 -44 38 3 4 -1
15 -8 23 -10 13 -10 17 2 25 11 7 10 9 -5 9 -15 0 -16 3 -6 15 10 12 10 15 0
15 -7 0 -10 7 -6 15 3 8 2 15 -2 15 -4 0 -8 9 -8 20 0 14 5 19 15 15 11 -4 12
-3 1 10 -7 8 -15 13 -19 10 -4 -2 -5 9 -3 26 2 16 9 29 14 29 5 0 6 6 1 13
-12 19 -10 75 3 70 7 -2 15 1 20 8 5 8 3 10 -6 4 -10 -6 -12 -4 -7 9 4 10 7
20 7 22 0 2 6 4 14 4 24 0 38 26 21 40 -8 7 -15 17 -15 22 0 7 5 6 13 -1 8 -6
17 -8 20 -4 13 13 7 19 -23 21 -23 2 -33 -3 -41 -20 -9 -22 -9 -22 -4 2 2 14
5 28 5 32 0 4 7 5 15 2 8 -4 22 -3 31 0 13 5 14 9 4 21 -11 13 -10 14 4 9 18
-7 49 13 40 27 -3 5 3 6 13 2 14 -5 16 -3 6 7 -6 7 -10 18 -9 24 2 6 1 8 -1 4
-8 -14 -21 -9 -25 9 -2 13 -6 11 -15 -10z m-39 -65 c3 -5 -1 -9 -9 -9 -8 0
-12 4 -9 9 3 4 7 8 9 8 2 0 6 -4 9 -8z m21 -102 c-3 -5 -10 -10 -16 -10 -5 0
-9 5 -9 10 0 6 7 10 16 10 8 0 12 -4 9 -10z m-267 -625 c-3 -3 -9 2 -12 12 -6
14 -5 15 5 6 7 -7 10 -15 7 -18z m1292 -130 c7 -9 8 -15 2 -15 -5 0 -12 7 -16
15 -3 8 -4 15 -2 15 2 0 9 -7 16 -15z m-114 -25 c0 -11 -6 -20 -13 -20 -11 0
-11 5 -3 20 6 11 12 20 13 20 2 0 3 -9 3 -20z m-1019 4 c-3 -3 -12 -4 -19 -1
-8 3 -5 6 6 6 11 1 17 -2 13 -5z m1250 0 c-3 -3 -12 -4 -19 -1 -8 3 -5 6 6 6
11 1 17 -2 13 -5z m53 0 c0 -8 -19 -13 -24 -6 -3 5 1 9 9 9 8 0 15 -2 15 -3z
m20 -38 c0 -2 -7 -6 -15 -10 -8 -3 -15 -1 -15 4 0 6 7 10 15 10 8 0 15 -2 15
-4z m-300 -10 c0 -2 -7 -7 -16 -10 -8 -3 -12 -2 -9 4 6 10 25 14 25 6z m373
-41 c-3 -9 -8 -14 -10 -11 -3 3 -2 9 2 15 9 16 15 13 8 -4z m108 2 c-8 -11 -3
-16 24 -27 41 -16 46 -29 10 -22 -14 2 -25 9 -25 15 0 5 -9 2 -20 -8 -19 -17
-20 -17 -20 -1 0 9 5 14 10 11 7 -4 9 2 4 19 -5 20 -2 26 11 26 13 0 15 -3 6
-13z m-737 -42 c-4 -8 -8 -15 -10 -15 -2 0 -4 7 -4 15 0 8 4 15 10 15 5 0 7
-7 4 -15z m693 -7 c-3 -8 -6 -5 -6 6 -1 11 2 17 5 13 3 -3 4 -12 1 -19z m-837
-1 c0 4 27 8 59 9 38 0 57 -4 55 -11 -5 -11 -49 -13 -60 -3 -3 4 -20 2 -37 -3
-24 -7 -35 -5 -47 7 -14 15 -13 15 8 5 12 -7 22 -8 22 -4z m890 -16 c0 -6 -4
-13 -10 -16 -5 -3 -10 1 -10 9 0 9 5 16 10 16 6 0 10 -4 10 -9z m-1533 -138
c149 -95 395 -192 538 -213 44 -6 94 -13 112 -16 l32 -5 -73 -107 c-40 -59
-101 -160 -135 -224 -35 -65 -68 -118 -73 -118 -22 0 -126 86 -229 190 -107
108 -219 261 -279 381 -23 45 -31 77 -36 146 l-7 88 46 -42 c26 -24 72 -59
104 -80z m1490 85 c-3 -8 -6 -5 -6 6 -1 11 2 17 5 13 3 -3 4 -12 1 -19z m273
-65 c0 -13 -3 -13 -15 -3 -12 10 -16 9 -21 -4 -3 -9 -13 -16 -21 -16 -9 0 -13
-6 -10 -15 4 -8 1 -17 -5 -21 -7 -5 -9 2 -6 19 3 15 0 28 -5 30 -6 2 -3 6 7
10 12 5 15 3 10 -6 -4 -6 3 -2 15 10 22 24 51 21 51 -4z m-170 -23 c-8 -5 -19
-10 -25 -10 -5 0 -3 5 5 10 8 5 20 10 25 10 6 0 3 -5 -5 -10z m54 -16 c3 -8 2
-12 -3 -9 -5 3 -12 1 -16 -5 -8 -13 -25 -13 -25 1 0 5 4 8 9 5 5 -3 11 1 15 9
7 19 12 19 20 -1z m26 6 c0 -5 -2 -10 -4 -10 -3 0 -8 5 -11 10 -3 6 -1 10 4
10 6 0 11 -4 11 -10z m5 -40 c3 -6 -1 -7 -9 -4 -18 7 -21 14 -7 14 6 0 13 -4
16 -10z m160 -50 c3 -5 -1 -10 -9 -10 -9 0 -16 5 -16 10 0 6 4 10 9 10 6 0 13
-4 16 -10z m-20 -16 c13 -9 28 -13 33 -11 4 3 13 -2 19 -12 8 -13 8 -18 -1
-18 -6 0 -23 -3 -38 -6 -15 -4 -30 -3 -33 3 -3 6 1 7 9 4 24 -9 19 15 -6 37
-28 23 -16 25 17 3z m-40 -4 c3 -6 -1 -7 -9 -4 -18 7 -21 14 -7 14 6 0 13 -4
16 -10z m135 -30 c0 -5 -4 -10 -10 -10 -5 0 -10 5 -10 10 0 6 5 10 10 10 6 0
10 -4 10 -10z m-155 -20 c3 -5 1 -10 -4 -10 -6 0 -11 5 -11 10 0 6 2 10 4 10
3 0 8 -4 11 -10z m56 -17 c36 -22 36 -28 1 -29 -15 -1 -21 1 -14 3 19 7 14 23
-8 23 -11 0 -20 5 -20 10 0 14 8 13 41 -7z m9 -50 c0 -1 -9 -7 -20 -13 -16 -8
-24 -8 -34 3 -12 12 -9 14 20 13 19 -1 34 -2 34 -3z m-75 -171 c-3 -3 -11 0
-18 7 -9 10 -8 11 6 5 10 -3 15 -9 12 -12z m-35 -46 c0 -3 -4 -8 -10 -11 -5
-3 -10 -1 -10 4 0 6 5 11 10 11 6 0 10 -2 10 -4z m20 -46 c0 -10 -31 -23 -38
-15 -8 7 19 35 29 29 5 -3 9 -9 9 -14z m-59 -7 c13 -16 12 -17 -3 -4 -10 7
-18 15 -18 17 0 8 8 3 21 -13z m-71 -213 c0 -5 -4 -10 -10 -10 -5 0 -10 5 -10
10 0 6 5 10 10 10 6 0 10 -4 10 -10z m-30 -34 c0 -3 -4 -8 -10 -11 -5 -3 -10
-1 -10 4 0 6 5 11 10 11 6 0 10 -2 10 -4z m-40 -156 c0 -5 -5 -10 -11 -10 -5
0 -7 5 -4 10 3 6 8 10 11 10 2 0 4 -4 4 -10z m-23 -82 c-3 -8 -6 -5 -6 6 -1
11 2 17 5 13 3 -3 4 -12 1 -19z m18 -58 c-3 -5 -11 -10 -16 -10 -6 0 -7 5 -4
10 3 6 11 10 16 10 6 0 7 -4 4 -10z m5160 -60 c3 -5 1 -10 -4 -10 -6 0 -11 5
-11 10 0 6 2 10 4 10 3 0 8 -4 11 -10z m-5157 -150 c7 -11 8 -20 2 -20 -5 0
-14 9 -20 20 -6 11 -7 20 -3 20 5 0 14 -9 21 -20z m5297 -190 c-3 -5 -11 -10
-16 -10 -6 0 -7 5 -4 10 3 6 11 10 16 10 6 0 7 -4 4 -10z m-5825 -230 c14 -27
4 -57 -20 -65 -36 -11 -63 25 -49 63 11 29 54 30 69 2z m136 -15 c9 -35 -2
-55 -29 -55 -27 0 -47 17 -47 40 0 43 65 56 76 15z m154 -25 c0 -13 -7 -20
-20 -20 -13 0 -20 7 -20 20 0 13 7 20 20 20 13 0 20 -7 20 -20z m1267 -719 c3
-11 12 -22 20 -25 8 -3 11 -10 8 -16 -3 -5 1 -10 10 -10 11 0 15 -5 11 -16 -3
-8 -2 -12 4 -9 9 6 30 -59 32 -99 1 -11 4 -25 8 -31 3 -5 6 -25 6 -42 -1 -18
1 -33 4 -33 3 0 5 -19 4 -42 -1 -24 -3 -43 -4 -43 -1 0 -3 -22 -5 -50 -2 -33
-9 -53 -22 -63 -10 -7 -17 -16 -16 -20 5 -13 -8 -42 -19 -42 -6 0 -24 -15 -42
-34 -86 -93 -239 -50 -309 89 -28 55 -30 69 -32 178 -2 64 1 120 6 122 4 3 6
12 3 19 -3 8 23 37 64 72 54 46 88 65 149 86 96 32 113 34 120 9z m-469 -512
c16 -47 35 -96 42 -108 6 -12 10 -29 8 -37 -2 -12 -12 -9 -46 16 -31 22 -52
49 -73 93 -42 90 -47 143 -19 198 40 80 44 80 52 -2 3 -41 20 -113 36 -160z
m-2092 -66 c20 -38 48 -81 61 -96 12 -16 23 -41 23 -57 l0 -28 -82 32 c-80 31
-83 34 -86 66 -5 51 7 118 24 135 9 8 17 15 19 15 2 0 20 -30 41 -67z m358
-77 c-3 -8 4 -16 15 -19 21 -5 30 -27 11 -27 -5 0 -10 5 -10 11 0 5 -4 8 -9 5
-5 -3 -12 1 -15 10 -9 24 -7 46 4 39 5 -3 7 -12 4 -19z m60 -87 c11 9 15 8 19
-3 3 -8 0 -17 -7 -19 -17 -7 -56 20 -56 36 0 7 7 3 15 -7 11 -15 17 -16 29 -7z
m87 -52 c-6 -8 -8 -17 -4 -20 3 -4 0 -7 -9 -7 -26 0 -29 14 -6 27 30 16 33 16
19 0z m29 -50 c-27 -15 -36 -14 -25 2 3 6 16 11 28 11 21 0 21 -1 -3 -13z
m-30 -33 c0 -2 -7 -4 -15 -4 -8 0 -15 4 -15 10 0 5 7 7 15 4 8 -4 15 -8 15
-10z m200 6 c12 -7 10 -9 -8 -7 -12 0 -22 5 -22 9 0 11 12 10 30 -2z m6 -45
c-11 -8 -22 -12 -25 -9 -6 6 19 24 34 24 6 -1 1 -7 -9 -15z m1055 -249 c13 8
39 -15 33 -29 -2 -7 9 -21 25 -31 18 -12 27 -25 23 -35 -3 -9 -1 -12 7 -7 7 4
10 2 9 -5 -2 -7 8 -15 22 -19 23 -5 23 -7 6 -13 -15 -6 -28 0 -50 24 -17 17
-25 28 -17 24 9 -5 12 -3 9 6 -3 8 -10 13 -16 12 -13 -3 -72 63 -71 80 0 9 2
9 6 -1 2 -6 9 -9 14 -6z m189 -145 c7 -15 6 -23 -5 -34 -13 -13 -13 -16 1 -21
8 -3 13 -2 10 2 -2 4 4 8 15 8 21 0 26 -12 8 -18 -9 -3 -8 -11 2 -30 12 -21
18 -24 37 -17 14 5 20 13 16 20 -5 8 -3 9 5 5 7 -5 10 -14 7 -22 -3 -7 1 -20
9 -28 11 -11 12 -15 2 -19 -17 -6 -38 3 -31 14 3 5 -2 9 -11 9 -23 0 -75 41
-68 53 3 6 2 7 -4 4 -10 -6 -63 45 -63 62 0 6 7 11 15 11 8 0 12 -6 9 -14 -4
-10 2 -12 21 -8 25 4 25 5 9 23 -10 11 -12 19 -6 19 6 0 16 -9 22 -19z m250
-235 c0 -10 -7 -12 -22 -8 -21 5 -21 6 -2 13 10 4 20 8 22 8 1 1 2 -5 2 -13z
m4 -52 c4 -12 2 -12 -14 -4 -11 6 -20 15 -20 20 0 14 28 1 34 -16z m36 -35 c0
-6 -4 -7 -10 -4 -5 3 -10 11 -10 16 0 6 5 7 10 4 6 -3 10 -11 10 -16z m-30
-245 c0 -8 -4 -12 -10 -9 -5 3 -10 13 -10 21 0 8 5 12 10 9 6 -3 10 -13 10
-21z m-36 -39 c-4 -8 -10 -15 -15 -15 -5 0 -9 7 -9 15 0 8 7 15 15 15 9 0 12
-6 9 -15z m1311 -425 c3 -5 2 -10 -4 -10 -5 0 -13 5 -16 10 -3 6 -2 10 4 10 5
0 13 -4 16 -10z m-1193 -29 c-11 -6 -10 -11 3 -25 9 -9 13 -16 8 -16 -12 0
-42 37 -36 44 4 3 13 6 22 6 13 0 13 -2 3 -9z m-37 -31 c3 -5 1 -10 -4 -10 -6
0 -11 5 -11 10 0 6 2 10 4 10 3 0 8 -4 11 -10z m35 -36 c0 -22 -16 -17 -17 6
-1 11 2 18 8 15 5 -4 9 -13 9 -21z m2 -36 c-9 -9 -15 -9 -24 0 -9 9 -7 12 12
12 19 0 21 -3 12 -12z m1263 -372 c-69 -31 -121 -97 -149 -189 -13 -42 -95
-47 -117 -6 -16 30 -5 58 46 116 37 42 57 55 108 72 77 25 94 29 132 29 27 1
25 -1 -20 -22z m473 -863 c38 -29 41 -43 7 -43 -30 0 -65 32 -65 61 0 22 5 21
58 -18z m-578 -8 c16 -19 3 -57 -18 -53 -22 4 -30 68 -9 68 8 0 20 -7 27 -15z
m120 -20 c18 -19 32 -37 29 -39 -2 -2 -22 -6 -43 -8 -35 -3 -42 1 -55 24 -13
22 -13 29 -2 42 20 24 33 20 71 -19z m587 13 c39 -14 43 -28 9 -28 -28 0 -78
24 -69 33 9 10 22 9 60 -5z m71 -5 c5 -18 -10 -16 -34 2 -18 15 -18 15 5 13
14 -2 26 -9 29 -15z m-448 -8 c10 -12 9 -16 -5 -21 -19 -8 -40 9 -31 25 10 15
21 14 36 -4z m135 -5 c3 -5 -3 -10 -14 -10 -11 0 -23 5 -26 10 -3 6 3 10 14
10 11 0 23 -4 26 -10z m-25 -80 c0 -5 -7 -10 -15 -10 -8 0 -15 5 -15 10 0 6 7
10 15 10 8 0 15 -4 15 -10z m-155 -21 c6 -19 0 -38 -9 -28 -10 12 -16 49 -7
49 5 0 13 -9 16 -21z"/>
<path d="M4195 4090 c-3 -5 -1 -10 4 -10 6 0 11 5 11 10 0 6 -2 10 -4 10 -3 0
-8 -4 -11 -10z"/>
<path d="M5991 1514 c0 -11 3 -14 6 -6 3 7 2 16 -1 19 -3 4 -6 -2 -5 -13z"/>
<path d="M2680 8950 c0 -5 5 -10 11 -10 5 0 7 5 4 10 -3 6 -8 10 -11 10 -2 0
-4 -4 -4 -10z"/>
<path d="M7850 8840 c0 -5 25 -44 56 -87 118 -164 224 -360 257 -474 23 -79
64 -365 60 -416 0 -7 3 -13 7 -13 33 0 14 279 -30 441 -13 49 -15 70 -7 78 15
15 27 14 27 -4 0 -8 -4 -15 -10 -15 -14 0 0 -31 27 -60 24 -26 31 -70 12 -70
-8 0 -7 -5 2 -16 8 -10 23 -14 41 -12 16 3 29 -1 32 -9 3 -7 12 -13 20 -13 10
0 13 6 10 15 -5 11 -2 13 12 8 12 -4 15 -3 10 5 -5 8 0 12 13 12 24 0 28 -15
6 -24 -17 -6 -20 -32 -5 -41 5 -3 8 0 5 7 -3 7 4 19 15 25 17 11 18 10 13 -5
-5 -13 -3 -15 7 -5 17 15 5 43 -20 50 -19 5 -20 6 -3 19 14 11 14 14 3 12 -8
-2 -14 3 -12 10 1 6 -7 12 -17 12 -23 0 -54 28 -45 41 3 5 11 6 17 3 9 -5 9
-4 1 5 -6 7 -18 13 -26 15 -15 2 -49 31 -48 41 1 17 -1 17 -15 -1 -14 -19 -14
-19 -15 3 0 17 5 21 27 18 25 -3 26 -2 8 11 -10 8 -27 14 -37 14 -10 0 -18 7
-18 16 0 14 -3 14 -15 4 -8 -7 -14 -19 -13 -26 3 -14 -8 -17 -32 -9 -8 3 -31
38 -50 78 -38 78 -197 324 -225 347 -20 16 -45 22 -45 10z m397 -516 c-3 -3
-12 -4 -19 -1 -8 3 -5 6 6 6 11 1 17 -2 13 -5z m44 -71 c13 -16 12 -17 -3 -4
-10 7 -18 15 -18 17 0 8 8 3 21 -13z m79 -7 c0 -3 -4 -8 -10 -11 -5 -3 -10 -1
-10 4 0 6 5 11 10 11 6 0 10 -2 10 -4z"/>
<path d="M2505 8669 c-4 -6 -5 -12 -2 -15 2 -3 7 2 10 11 7 17 1 20 -8 4z"/>
<path d="M2512 8604 c-7 -8 -8 -14 -3 -14 10 0 25 19 20 25 -2 1 -10 -3 -17
-11z"/>
<path d="M8164 8449 c-4 -7 -3 -9 4 -5 6 3 12 -2 14 -11 2 -12 6 -14 11 -7 4
7 0 17 -7 23 -11 9 -16 9 -22 0z"/>
<path d="M8240 8440 c0 -5 5 -10 11 -10 5 0 7 5 4 10 -3 6 -8 10 -11 10 -2 0
-4 -4 -4 -10z"/>
<path d="M3305 8370 c-3 -6 1 -7 9 -4 18 7 21 14 7 14 -6 0 -13 -4 -16 -10z"/>
<path d="M8310 8349 c0 -5 5 -7 10 -4 6 3 10 8 10 11 0 2 -4 4 -10 4 -5 0 -10
-5 -10 -11z"/>
<path d="M2225 8340 c-3 -6 1 -7 9 -4 18 7 21 14 7 14 -6 0 -13 -4 -16 -10z"/>
<path d="M8235 8260 c3 -5 8 -10 11 -10 2 0 4 5 4 10 0 6 -5 10 -11 10 -5 0
-7 -4 -4 -10z"/>
<path d="M2256 8251 c-4 -5 -2 -12 3 -15 5 -4 12 -2 15 3 4 5 2 12 -3 15 -5 4
-12 2 -15 -3z"/>
<path d="M8270 8171 c0 -5 6 -14 14 -20 12 -10 17 -8 27 11 11 21 11 22 -4 9
-11 -9 -17 -10 -17 -2 0 6 -4 11 -10 11 -5 0 -10 -4 -10 -9z"/>
<path d="M8335 8150 c3 -5 8 -10 11 -10 2 0 4 5 4 10 0 6 -5 10 -11 10 -5 0
-7 -4 -4 -10z"/>
<path d="M3745 8120 c-19 -8 -19 -9 3 -9 12 -1 22 4 22 9 0 6 -1 10 -2 9 -2 0
-12 -4 -23 -9z"/>
<path d="M3776 8093 c-6 -14 -5 -15 5 -6 7 7 10 15 7 18 -3 3 -9 -2 -12 -12z"/>
<path d="M3730 8090 c0 -5 5 -10 11 -10 5 0 7 5 4 10 -3 6 -8 10 -11 10 -2 0
-4 -4 -4 -10z"/>
<path d="M3819 8061 c11 -7 11 -9 0 -14 -10 -4 -9 -6 4 -6 9 -1 17 6 17 14 0
8 -8 15 -17 15 -14 0 -15 -2 -4 -9z"/>
<path d="M3400 8020 c-9 -6 -10 -10 -3 -10 6 0 15 5 18 10 8 12 4 12 -15 0z"/>
<path d="M3835 8010 c3 -5 8 -10 11 -10 2 0 4 5 4 10 0 6 -5 10 -11 10 -5 0
-7 -4 -4 -10z"/>
<path d="M3859 7994 c-11 -31 -7 -39 18 -29 12 5 14 9 6 12 -7 3 -13 11 -13
18 0 7 6 16 13 18 9 4 9 6 -1 6 -7 1 -17 -11 -23 -25z"/>
<path d="M3795 7999 c-4 -6 -5 -13 -2 -16 7 -7 27 6 27 18 0 12 -17 12 -25 -2z"/>
<path d="M3895 8000 c-3 -5 -1 -10 4 -10 6 0 11 5 11 10 0 6 -2 10 -4 10 -3 0
-8 -4 -11 -10z"/>
<path d="M3390 7985 c-7 -8 -8 -15 -2 -15 5 0 15 7 22 15 7 8 8 15 2 15 -5 0
-15 -7 -22 -15z"/>
<path d="M3900 7970 c0 -5 5 -10 10 -10 6 0 10 5 10 10 0 6 -4 10 -10 10 -5 0
-10 -4 -10 -10z"/>
<path d="M3285 7960 c3 -5 8 -10 11 -10 2 0 4 5 4 10 0 6 -5 10 -11 10 -5 0
-7 -4 -4 -10z"/>
<path d="M4015 7959 c-4 -6 -5 -12 -2 -15 2 -3 7 2 10 11 7 17 1 20 -8 4z"/>
<path d="M3206 7942 c-3 -5 1 -9 9 -9 8 0 12 4 9 9 -3 4 -7 8 -9 8 -2 0 -6 -4
-9 -8z"/>
<path d="M3883 7943 c-15 -5 -17 -23 -4 -23 5 0 11 7 15 15 3 8 4 15 3 14 -1
0 -8 -3 -14 -6z"/>
<path d="M3985 7941 c-3 -5 -2 -12 3 -15 5 -3 9 1 9 9 0 17 -3 19 -12 6z"/>
<path d="M3147 7927 c-3 -7 5 -12 19 -12 29 0 29 1 5 14 -14 8 -20 7 -24 -2z"/>
<path d="M2747 7863 c-4 -3 -7 -13 -7 -21 0 -18 13 -7 16 13 2 17 1 18 -9 8z"/>
<path d="M2895 7860 c-3 -5 -1 -10 4 -10 6 0 11 5 11 10 0 6 -2 10 -4 10 -3 0
-8 -4 -11 -10z"/>
<path d="M4100 7866 c0 -2 7 -7 16 -10 8 -3 12 -2 9 4 -6 10 -25 14 -25 6z"/>
<path d="M4211 7709 c-1 -9 7 -23 17 -30 15 -12 16 -12 6 1 -6 8 -14 22 -17
30 -5 13 -6 12 -6 -1z"/>
<path d="M4316 7628 c3 -4 9 -8 15 -8 5 0 9 4 9 8 0 5 -7 9 -15 9 -8 0 -12 -4
-9 -9z"/>
<path d="M4414 7625 c-3 -8 -4 -20 -2 -27 3 -7 7 -1 10 15 6 29 1 36 -8 12z"/>
<path d="M4375 7590 c3 -5 8 -10 11 -10 2 0 4 5 4 10 0 6 -5 10 -11 10 -5 0
-7 -4 -4 -10z"/>
<path d="M4485 7570 c3 -5 8 -10 11 -10 2 0 4 5 4 10 0 6 -5 10 -11 10 -5 0
-7 -4 -4 -10z"/>
<path d="M4445 7539 c-4 -6 -5 -12 -2 -15 2 -3 7 2 10 11 7 17 1 20 -8 4z"/>
<path d="M4400 7530 c-9 -6 -10 -10 -3 -10 6 0 15 5 18 10 8 12 4 12 -15 0z"/>
<path d="M4357 7473 c-10 -10 -8 -23 4 -23 5 0 8 4 5 9 -4 5 0 12 6 14 7 3 8
6 2 6 -6 1 -14 -2 -17 -6z"/>
<path d="M4260 7400 c0 -5 7 -10 16 -10 8 0 12 5 9 10 -3 6 -10 10 -16 10 -5
0 -9 -4 -9 -10z"/>
<path d="M4315 7399 c-3 -4 1 -9 9 -12 8 -3 17 0 19 7 5 13 -21 18 -28 5z"/>
<path d="M4278 7313 c7 -3 16 -2 19 1 4 3 -2 6 -13 5 -11 0 -14 -3 -6 -6z"/>
<path d="M4228 7253 c7 -3 16 -2 19 1 4 3 -2 6 -13 5 -11 0 -14 -3 -6 -6z"/>
<path d="M4161 7161 c-8 -6 -9 -11 -3 -15 6 -3 14 -1 17 5 9 14 2 20 -14 10z"/>
<path d="M4070 7122 c0 -4 9 -15 20 -25 11 -9 20 -12 20 -6 0 5 6 7 13 4 6 -4
1 3 -12 14 -24 22 -41 27 -41 13z"/>
<path d="M9220 6936 c0 -3 9 -10 20 -16 11 -6 20 -8 20 -6 0 3 -9 10 -20 16
-11 6 -20 8 -20 6z"/>
<path d="M9170 6910 c0 -5 5 -10 10 -10 6 0 10 5 10 10 0 6 -4 10 -10 10 -5 0
-10 -4 -10 -10z"/>
<path d="M9165 6870 c4 -6 11 -8 16 -5 14 9 11 15 -7 15 -8 0 -12 -5 -9 -10z"/>
<path d="M4257 6780 c-3 -11 -1 -20 4 -20 5 0 9 9 9 20 0 11 -2 20 -4 20 -2 0
-6 -9 -9 -20z"/>
<path d="M4197 6623 c-4 -3 -7 -11 -7 -17 0 -6 5 -5 12 2 6 6 9 14 7 17 -3 3
-9 2 -12 -2z"/>
<path d="M5324 6318 c-78 -83 -243 -201 -373 -266 -140 -70 -170 -90 -163
-110 2 -7 7 -10 10 -8 4 2 23 7 42 10 102 17 322 104 431 172 46 28 87 77 111
132 23 52 20 82 -8 93 -17 6 -28 1 -50 -23z"/>
<path d="M6625 6172 c16 -15 173 -51 250 -57 61 -4 52 -1 -66 24 -75 15 -149
31 -165 35 -19 5 -25 4 -19 -2z"/>
<path d="M9960 6117 c0 -7 6 -19 13 -26 10 -11 9 -13 -4 -8 -9 3 -22 1 -30 -4
-10 -6 -7 -9 12 -9 14 0 31 -6 38 -12 11 -11 13 -10 7 5 -3 11 -9 30 -12 43
-6 25 -24 33 -24 11z"/>
<path d="M6963 6103 c9 -2 23 -2 30 0 6 3 -1 5 -18 5 -16 0 -22 -2 -12 -5z"/>
<path d="M9963 6044 c0 -8 4 -14 9 -14 5 0 -3 -12 -17 -26 -21 -20 -23 -29
-14 -40 6 -8 8 -14 4 -14 -4 0 -3 -6 3 -12 11 -14 10 -43 -2 -71 -5 -9 -5 -28
-2 -42 4 -14 3 -25 -2 -25 -5 0 -7 -15 -5 -32 2 -18 4 -40 5 -48 0 -8 7 -24
14 -35 18 -26 18 -55 -2 -83 -9 -13 -14 -26 -11 -28 3 -3 2 -18 -3 -33 -4 -16
-3 -35 2 -46 8 -13 7 -16 -1 -11 -6 4 -11 3 -11 -3 0 -5 5 -13 10 -16 6 -4 8
-11 5 -16 -4 -5 8 -29 25 -55 29 -42 31 -47 16 -63 -25 -27 -48 -103 -41 -137
3 -17 14 -39 25 -49 27 -25 25 -35 -15 -96 -37 -56 -41 -69 -25 -69 6 0 10 -8
10 -19 0 -10 13 -35 30 -55 l29 -38 -53 -64 c-41 -49 -52 -71 -48 -87 7 -26
39 -84 60 -110 14 -15 11 -23 -31 -77 -26 -33 -47 -67 -47 -75 0 -9 12 -33 26
-54 14 -22 28 -57 31 -79 5 -39 5 -39 -69 -93 -71 -52 -74 -56 -61 -76 8 -12
28 -54 44 -93 l28 -70 -45 -42 c-25 -23 -60 -53 -77 -66 -18 -13 -31 -26 -30
-30 1 -4 18 -52 38 -107 19 -54 31 -102 27 -106 -4 -3 -41 -21 -82 -39 -41
-19 -79 -37 -84 -41 -4 -4 3 -22 17 -41 26 -35 71 -118 65 -122 -2 -2 -37 -26
-79 -54 -42 -28 -79 -57 -82 -64 -2 -8 4 -54 14 -103 15 -70 16 -91 6 -97 -21
-14 -109 -38 -140 -38 -23 0 -28 -4 -24 -17 7 -21 51 -141 61 -164 5 -12 -16
-26 -98 -65 l-105 -49 5 -55 c2 -30 7 -75 9 -100 l5 -46 -75 -32 c-41 -18 -84
-32 -96 -32 -21 0 -21 -3 -13 -62 4 -35 8 -81 8 -103 1 -38 -2 -41 -44 -62
-24 -13 -57 -23 -72 -23 -33 0 -58 -32 -58 -75 0 -16 -3 -46 -6 -65 -6 -35 -7
-36 -72 -48 -83 -15 -102 -35 -103 -106 -2 -94 -6 -100 -79 -108 -35 -4 -69
-9 -75 -12 -7 -2 -15 -35 -19 -74 -7 -75 -13 -82 -66 -82 -15 0 -41 -3 -58 -6
-29 -6 -31 -9 -44 -83 l-14 -76 -84 -7 c-51 -4 -86 -12 -91 -20 -5 -7 -16 -45
-25 -84 l-16 -72 -73 -7 c-41 -3 -78 -12 -84 -18 -5 -7 -12 -30 -16 -52 -9
-45 -27 -86 -47 -102 -9 -8 -36 -7 -93 3 -107 17 -102 18 -108 -16 -4 -16 -19
-59 -34 -95 l-28 -65 -60 1 c-33 0 -79 4 -103 8 -36 7 -44 6 -49 -8 -11 -35
-87 -191 -92 -191 -3 0 -46 16 -95 35 -49 19 -90 34 -91 32 -1 -1 -8 -31 -14
-66 -7 -35 -18 -74 -24 -88 -12 -27 -9 -27 -134 0 -35 8 -68 10 -77 5 -8 -4
-36 -42 -62 -83 -40 -63 -51 -74 -68 -69 -21 7 -82 42 -123 70 -21 15 -22 14
-57 -62 -20 -42 -36 -80 -36 -85 0 -4 -4 -10 -8 -13 -11 -7 -136 31 -183 55
l-36 18 -24 -33 c-13 -19 -43 -54 -66 -79 l-42 -46 -68 26 c-37 14 -79 34 -93
44 l-25 17 -58 -80 c-41 -55 -63 -78 -74 -74 -8 3 -20 6 -27 6 -7 0 -33 13
-57 30 -24 16 -52 30 -61 30 -10 0 -45 -21 -77 -46 l-60 -46 -33 25 c-37 28
-92 57 -107 57 -5 0 -38 -24 -73 -54 l-64 -54 -64 48 -63 48 -55 -44 c-29 -24
-57 -44 -60 -44 -4 0 -32 20 -62 43 l-55 44 -35 -26 c-19 -13 -47 -35 -61 -48
l-26 -24 -68 56 c-76 63 -79 63 -162 9 l-53 -34 -42 31 -43 31 -3 -26 c-3 -24
13 -165 20 -171 27 -28 759 -42 1003 -19 623 57 1237 230 1778 500 377 189
664 377 997 652 134 110 487 462 611 607 677 794 1078 1738 1181 2780 20 199
17 761 -5 960 -17 156 -52 392 -63 428 -5 17 -7 17 -30 2 -13 -8 -24 -11 -24
-6 0 5 -6 11 -13 14 -8 3 -14 -1 -14 -9z"/>
<path d="M8250 5691 c0 -6 4 -13 10 -16 6 -3 7 1 4 9 -7 18 -14 21 -14 7z"/>
<path d="M8264 5620 c13 -72 35 -506 37 -730 0 -63 3 -108 6 -100 3 8 12 18
19 23 7 4 18 32 25 63 11 50 17 57 53 76 22 11 48 31 59 44 10 13 27 24 38 24
11 0 18 4 15 9 -6 8 9 18 28 19 12 0 50 61 51 83 1 10 -2 16 -7 13 -4 -3 -8 0
-8 5 0 17 -35 48 -48 43 -7 -2 -12 3 -12 12 0 9 -6 16 -14 16 -7 0 -25 11 -39
24 -14 13 -46 39 -72 57 -27 19 -48 43 -51 58 -3 14 -13 51 -21 81 -8 30 -18
74 -23 96 -10 48 -43 126 -36 84z"/>
<path d="M7170 4901 c0 -6 4 -13 10 -16 6 -3 7 1 4 9 -7 18 -14 21 -14 7z"/>
<path d="M2705 4640 c-3 -5 -1 -10 4 -10 6 0 11 5 11 10 0 6 -2 10 -4 10 -3 0
-8 -4 -11 -10z"/>
<path d="M2755 4500 c-3 -5 -1 -10 4 -10 6 0 11 5 11 10 0 6 -2 10 -4 10 -3 0
-8 -4 -11 -10z"/>
<path d="M2790 4430 c0 -6 7 -10 15 -10 8 0 15 2 15 4 0 2 -7 6 -15 10 -8 3
-15 1 -15 -4z"/>
<path d="M2966 4281 c-3 -5 3 -11 15 -14 16 -4 18 -3 8 9 -13 16 -16 17 -23 5z"/>
<path d="M6928 3492 c-40 -17 -222 -290 -211 -318 8 -22 17 -17 54 26 19 22
37 40 41 40 4 0 7 -42 6 -92 -1 -51 2 -157 7 -234 l8 -142 81 -21 c228 -59
341 -79 486 -85 47 -2 90 -4 95 -6 6 -1 15 -1 20 0 6 1 17 3 25 4 8 0 14 7 12
15 -2 8 3 11 12 8 15 -6 30 18 20 34 -3 5 -2 9 3 8 21 -4 23 3 6 34 -10 17
-21 34 -25 37 -16 13 -26 58 -15 69 6 6 7 11 1 11 -5 0 -10 12 -9 28 1 15 -2
38 -7 52 -4 14 -9 36 -10 50 -2 14 -7 31 -11 38 -5 7 -3 12 3 12 6 0 8 5 3 13
-4 6 -9 21 -11 32 -2 11 -5 25 -6 31 -1 7 -8 19 -15 28 -7 8 -10 19 -7 24 3 5
-3 20 -14 32 -19 22 -24 40 -21 69 2 7 -2 10 -8 6 -6 -3 -11 2 -11 13 0 11 -6
20 -12 19 -34 -1 -59 4 -55 11 3 4 -5 7 -16 8 -41 1 -88 12 -102 24 -8 7 -22
10 -30 6 -8 -3 -59 6 -112 19 -54 14 -112 25 -130 25 -37 0 -39 4 -18 40 23
40 16 49 -27 32z"/>
<path d="M2920 3411 l-124 -6 -52 -205 c-86 -347 -146 -611 -139 -618 8 -8
445 89 662 147 84 23 154 41 157 41 5 0 9 172 7 275 -1 64 -9 123 -19 142 -9
17 -9 22 1 26 9 3 9 7 -2 20 -7 10 -10 17 -7 17 4 0 2 9 -4 20 -8 14 -8 20 0
20 6 0 8 5 3 13 -4 6 -9 20 -10 30 -5 33 -24 58 -51 68 -33 13 -253 18 -422
10z"/>
<path d="M4560 3400 c-9 -6 -10 -10 -3 -10 6 0 15 5 18 10 8 12 4 12 -15 0z"/>
<path d="M4525 3160 c-3 -6 1 -7 9 -4 18 7 21 14 7 14 -6 0 -13 -4 -16 -10z"/>
<path d="M4660 2758 c0 -4 4 -8 9 -8 6 0 12 4 15 8 3 5 -1 9 -9 9 -8 0 -15 -4
-15 -9z"/>
<path d="M5826 2022 c-16 -2 -35 -10 -43 -18 -13 -12 -34 -18 -55 -15 -4 0 -4
-7 -1 -16 5 -12 2 -15 -10 -10 -15 6 -16 3 -7 -13 6 -11 7 -20 3 -19 -28 5
-33 -2 -17 -26 26 -40 73 -63 198 -95 122 -31 283 -41 316 -20 13 8 12 10 -3
10 -13 0 -17 5 -12 19 4 14 -1 20 -20 25 -29 7 -32 22 -10 53 14 20 14 23 -2
31 -10 5 -53 12 -95 15 -77 5 -153 31 -193 65 -12 11 -31 16 -49 14z"/>
<path d="M5530 1940 c-12 -8 -9 -10 13 -10 16 0 26 4 22 10 -8 12 -16 12 -35
0z"/>
<path d="M6190 1890 c0 -5 5 -10 11 -10 5 0 7 5 4 10 -3 6 -8 10 -11 10 -2 0
-4 -4 -4 -10z"/>
<path d="M3523 584 c-58 -38 -63 -49 -66 -139 l-2 -60 110 -37 c184 -61 557
-158 612 -158 14 0 15 15 11 115 -3 64 -8 118 -11 122 -4 3 -12 1 -19 -4 -7
-6 -43 -21 -80 -35 l-66 -26 -39 42 c-22 22 -52 58 -67 78 l-27 38 -37 -19
c-53 -26 -171 -63 -182 -56 -6 4 -10 12 -10 18 0 15 -63 156 -70 156 -3 1 -29
-15 -57 -35z"/>
</g>
</svg>
